<?xml version="1.0" encoding="UTF-8"?><svg id="_레이어_2" xmlns="http://www.w3.org/2000/svg" viewBox="0 0 36.69 45.53"><defs><style>.cls-1,.cls-2{fill:#fff;}.cls-2{fill-rule:evenodd;}</style></defs><g id="_레이어_1-2"><path class="cls-1" d="M25.9,25.85c-.02-.43-.13-.95-.14-1.13-.26-6.85-2.77-8.76-3.46-9.12-1.82-1.3-4.03,.08-5.28,1.97-.31,.2-.53,.6-.77,.85-.97-3.62-3.04-4.97-3.59-5.13-.14-.04-1.09-.47-1.57-.19-.9-.02-1.74,.52-2.49,.87-.29,.14-.32,.41-.61,.51-1.46,1.17-4.6,4-6.26,9.94-.1,.6-.36,1.41-.24,2,.22,.02,.38,.6,.66,.5,.04,.42,.96-.12,.81,.31,.42,.31,.86,.01,1.32-.07,1.67-.44,2.43-1.32,2.58-1.51,.78-.35,.71-.71,1.04-1.34,.32-.14,.08-.42,.33-.62,0-.26,.48-1.31,.73-1.8,.08,.05,.27-.16,.42-.48,0,0,.78-2.05,2.08-2.15,.81-.06,1.28,.57,1.57,1,1.26,1.88,1,2.52,1.82,3.27,.53,.49,1.51,.24,1.96,0,.17-.35,.47-.18,.67-.52,.21-.19,.54-.27,.61-.64,.33-.33,.59-1,1.02-1.62,.56-.81,1.33-1.36,2.07-1.37,.62,0,.72,.48,1.08,.76,.81-.46,2.1,3.48,2.23,3.5,.1,.03,.17,.14,.17,.14,.11,.14,.34,1.07,.4,1.25,.01,.04,.03,.09,.08,.1,0-.03,.06-.06,.05-.08-.03-.06,.06-.17,.05-.24,0-.04-.03-.06-.03-.09-.01-.08,.02,.02,0-.07,0-.02-.01-.03-.02-.05,0-.02,0-.05,.01-.06,.01,0,.03,0,.05,0,0,0,0,.03,0,.04,.04,.06,.14,.12,.15,.17,.02,.07,0,.08,.03,.13-.02,.09,.09,.18,.09,.27,0,.01,.04,.03,.05,.04,0,.12,.05,.13,.11,.23,.02,.04,.03,.08,.04,.11,0,.03,0,.07,0,.09,.03,.08,.12,.18,.13,.27,0,.02,.04,.01,.06,.02,0-.03,0-.05,0-.07"/><path class="cls-2" d="M35.73,21.33c.06,.4,.08,.88,.08,.88-.05,.09-.14,.52,.05,.48,.01,.82-.07,1.02-.08,1.68,0,.02,0,.03,0,.05,0,0,.04,.21,.03,.34,.1,.04-.03,.19-.03,.26,0,.02-.02,.25-.06,.39,0,.04-.01,.08-.02,.12,0,.83-.06,1.38-.22,2.12-.1,.68-.23,1.32-.4,1.96-.06,.38-.12,.74-.24,1.03-.02,.27-.75,1.88-.83,2.1-.09,.3-.12,.53-.32,.89,0,.02-.15,.28-.24,.41-.02,.04-.05,.09-.07,.13-.37,1-.73,1.27-1.2,1.86-.4,.58-.8,1.32-1.23,1.74-.22,.28-.34,.55-.57,.7-.14,.22-1.12,1.1-1.28,1.22-.2,.17-.41,.31-.59,.63-.15,.02-.38,.48-.51,.29-1.18,.83-.64,.56-1.53,1.18-.11,.07-.27,.04-.34,.29-.27,.12-.7,.59-1.03,.57-.21,.14-.76,.45-.96,.58-.07-.02-.09,.06-.13,.11-.16-.04-.76,.47-.92,.38-.28,.15-.62,.32-.9,.47-.03,0-.76,.31-1.23,.46-.04,.02-.07,.04-.11,.06-.34,.06-.61,.3-.94,.28-.15,.07-.33,.04-.46,.14-.4,.1-.78,.31-1.03,.36-.29,.05-.54,.05-.83,.04,.31-.07,.42-.12,.73-.25,.12-.02,.2-.08,.25-.15,.02-.02,.07,0,.11-.02,.33-.19,.66-.22,1.01-.41,.63-.15,1.07-.7,1.69-.73,.22-.28,.56-.36,.83-.5,.39-.18,.91-.61,1.13-.74,.22-.14,.67-.47,.77-.59,.07-.09,.38-.34,.38-.34,.11-.13,0-.25-.3-.11-.11,.05-.44,.27-.53,.28,0,0-.12-.03-.18-.02-.06,0-.2,.09-.26,.1-.03,.12-.05,.23-.13,.32-.02,.02-.23,.11-.24,.15-.02,.03-.05,.04-.07,.07-.02,.03-.06,.02-.08,.05-.07,0-.11,.03-.18,.02-.01,.01-.02,0-.04,.03-.01,0-.02,0-.03-.01-.03,0-.05,0-.08,.01-.03,.02-.04,.08-.07,.13-.06,.06-.12,.11-.18,.13-.14,.03-.15,.13-.28,.17-.04,.13-.21,.07-.31,.15-.05,.03-.13-.02-.17,.04-.08,.1-.21,.12-.27,.23-.12-.05-.19,.08-.31,.09-.11,.15-.22,.09-.36,.2-.1-.13-.15,.11-.26-.02-.26,.14-.62,.19-.85,.42-.4,.05-.62,.22-1.03,.28-.23-.21-.46,.23-.65,.32-.04-.04-.06-.05-.11-.04-.25,.34-.53,0-.84,.24-.16-.15-.45,.07-.51,.02,0-.05-.05-.03-.16,.04-.05,.03-.11,.04-.13,.1-.08-.05-.15,.06-.21-.02-.11,.07-.09,.17-.24,.19-.1-.04-.38-.01-.46,.04-.62-.06-.39,.16-.64,.1,.01-.03-.15,.02-.14-.01-.11-.09-.14,.07-.31,.04,0,0-.19,.05-.14-.02-.02-.04-.13,0-.15,0-.08-.02-.26-.02-.59-.11,1.47-.09,2.96-.78,4.09-1.14,.07-.13,.16-.1,.27-.11,.27-.14,2.24-1.06,2.52-1.18,.04-.17,.14,0,.2-.12,.11-.09,.23-.05,.3-.17,.03-.03,.36-.13,.33-.19,.15-.05,.32-.14,.43-.25,.09-.16,.53-.31,.68-.37,.04-.05,.91-.52,.91-.62,1.34-.9,2.57-1.9,3.78-3.14,.06-.06,.26-.16,.31-.22,.07-.07,.27-.18,.34-.25,.07-.07-.04-.16,.03-.24,.29-.32,.57-.64,.84-.98,.05-.06,.37-.28,.42-.35,.32-.4,.35-.65,.64-1.07,.29-.42,.56-.85,.81-1.29,.2-.35,.39-.71,.57-1.07,.57-1.16,.99-2.36,1.22-3.59-.64,1.39-1.47,2.72-2.37,3.95-.1,.14-.28,.2-.39,.34-.1,.13-.12,.33-.22,.45-.06,.07-.12,.15-.18,.23-1.59,1.95-4.75,4.18-5.78,4.9-.39,.21-1.39,.75-1.48,.82-.08,.07-.18,.18-.29,.19-.11,0-.27,.12-.37,.2-.13,.07-.5,.19-.97,.35,.68-.39,1.58-.94,2.15-1.53-.02-.29-.89,.53-1.9,1.09-.19,.09-.41,.23-.6,.32-.05-.02-.1,.09-.14,.12-.13-.06-.37-.01-.45,.07-.12-.01-.43,.32-.55,.22-.26,.1-.5,.18-.76,.28-.02,0-.68,.19-1.09,.27-.03,.01-.06,.02-.09,.04-.29,.02-.55,.19-.82,.16-.13,.04-.32,.03-.44,.1-.32,.06-1.08,.18-1.6,.15,.28-.05,1.12-.18,1.34-.22,.26-.1,.61-.1,.88-.19,.49-.05,.85-.38,1.33-.34,.18-.17,.4-.25,.62-.32,.7-.29,1.24-.51,1.85-.9,.36-.17,1.64-1.25,1.29-1.14-.4,.21-1.07,.7-1.25,.73-.06,.1-.6,.02-.76,.09-.14,.01-.13,.24-.27,.3,0,0-.14,.17-.2,.15-.18,.15-.37,.16-.55,.3-.07,0-.11-.05-.18-.02,0,.01,.01,.02,.02,.03-.04,.03-.08,0-.12,.02-.1,.11-.25,.13-.36,.18-.03-.14-.09,.05-.16,.03-.05-.04-.09-.02-.14,.02,0,.02,0,.03-.04,.04h0s-.07,.06-.12,.07c-.07-.01-.15,.06-.23,.02-.05-.03-.27-.04-.34,.02-.06,.16-.13,.01-.21,.11,0,.01-.04,0-.04,.01-.05,.03,0,.01-.04,0-.28,.1-.56,.17-.84,.22,0,0,0-.09-.04-.05-.02,0-.04,.02-.03,.05-.11,.02-.17-.08-.27,0,.03-.05-.01-.06-.03-.09-.45,.23-.45,.07-.85,.17-.07-.02-.18,.17-.22,.06-.19,0-.38-.02-.64-.09,.48-.07,1.9-.4,2.14-.49-.02,.04,.07,.06,.11,.02,0-.02,.03-.03,0-.04,.13-.06,.28-.13,.39-.15,.43-.21,.83-.31,1.25-.47,.26-.2,.77-.26,1.04-.48,.22-.06,1.75-.92,1.93-1.04,.69-.48,2.45-1.52,3.3-2.33,.55-.43,1.2-.94,1.75-1.4-.02-.02-.03-.03-.05-.05,.19-.31,.61-.63,.95-.97,.19-.24,.37-.48,.56-.73,0-.03-.02-.06-.02-.08,.07-.18,.17-.24,.29-.29,.12-.17,.23-.33,.35-.5,.1-.24,.41-.81,.69-1.11,.14-.29,.12-.49,.4-.86,.13-.24,.17-.47,.29-.71-.02-.02-.04-.03-.04-.04,.02-.14,.1-.22,.2-.31,.07-.15,.14-.5,.21-.66,.03-.19,.04-.76,.25-1.07,.99-5.81-1.31-9.48,.69-12.1,.26-.27,.02-.53-.22-.64,.02-.32-.13-.54-.2-.82,.1-.34-.23-.81,.26-1-.05-.25,.2-.06,.34-.15,.15-.09,.35-.12,.55-.08,.14-.07,0-.14,.06-.19,0-.13,.26-.35,.36-.39,.45-.06,1.55,.05,1.81,.61,.22,.13,.14,.38,.19,.57-.18,.15,.57,.52-.1,1.12,.81-.02,1.68,.76,2.04,1.57,.79,1.77,.98,3.37,1.24,5.64"/><path class="cls-1" d="M36.69,10.89c-1.22,.12-3.66,.19-5.41-.56-.85-.38-2.03-1.08-2.61-1.54-.24,.22-.13,.6-.21,.89-.3,.63-.09,.78-.38,1.41,.12,.23-.28,.79-.12,1.02-.15,.59-.4,1.37-.7,1.97-.25,.95-.9,1.75-.95,1.8-.64-.05-.7-.57-1.05-.91-.25-.15-.16-.59-.38-.77-.33-1.48-.28-2.15-.13-3.06,.23-1.21,.81-2.39,1.61-3.68-1.23,0-2.73-.35-3.94-.8-.15-.1-.48-.17-.48-.43-.48-.4-1.14-.41-1.64-.97,.31-.26,.95-.32,1.22-.56,1.38-.14,3.75,.69,4.88,1.47l.2,.04c-.33-2.62-.24-4.53,.97-6.19,.28-.2,.56,.62,.58,.92,.17,.44,.33,.87,.44,1.2,.04,.73,.66,1.9,.38,3.1,1.24-1.43,1.68-2.28,5.13-4.24,.6-.17,.13,2.81-.5,3.37-.16,.19,.17,.39-.02,.58-.04,.15-.33,.33-.18,.56-.48,.73-1.18,1.35-1.6,1.59l-.4,.26c1.05,.26,3.53,.29,5.29,3.52"/><path class="cls-1" d="M18.33,13.8c-.97,.12-1.01-.3-1.55-.39-.33-.33-.64-.62-.57-1.21,.12-.43,.22-.63,.2-1,.1-.37,.44-.75,.76-1.09,.19-.12,.39-.33,.41-.5,.61-.46,1.11-.74,1.77-.96,1.55-.42,1.72,.39,2.12,.35,.61,.64,.55,1.47,.1,2.42,.02,.26-.34,.53-.49,.8-.45,.32-.78,.83-1.32,1.11,0,0-.67,.39-1.44,.49"/><path class="cls-2" d="M18.03,31.12c-.37,.01-.63,.06-1.01,.1-.24,.03-.49,.03-.75,0-.1-.02-.23,0-.33,.05-.23,.07-.52-.04-.75,.01-.1,.02-.24,.02-.32,.03-.09,.03-.19,.02-.3,.03-2.94,.3-5.72,.77-9.06,1.64-4.5,1.09-6.85-1.21-4.68-2.82,2.7-1.85,15.68-4.02,25.46-.07,.26,.1,.51,.28-.2,.17-.35-.05-.36,0-.54-.02-.03,0-.07-.02-.1-.02-.08-.02-.17,0-.27-.01-.01,0-.01-.02-.02-.03-.02-.03-.06,0-.08-.04-.02-.02-.09,.04-.12,.03-.1-.01-.19-.03-.29-.07-.02-.01-.06-.02-.09-.05-.03-.02-.07-.01-.1,0-.09,.02-.19,.01-.28,0,0,0-.02-.01-.03-.01-.15-.04-.35-.01-.5-.04-.03-.01-.24-.05-.28-.05-.53-.02-.23,.21,.13,.26,.08,.01,.32,.07,.59,.14,.27,.08,1.6,.36,.37,.34-.29,0-.58,0-.89-.05-.03,0-.08-.02-.12-.03-.14-.01-.27,.02-.41,.01-.01-.01-.04-.02-.05-.02-.21-.02-.43,0-.64-.02,0-.02-.03,0-.02-.02-.06-.02-.13-.03-.19-.02-.08,.02-.15,.02-.22,.01-.24-.02-.67-.03-.96-.08-.02,0-.23-.07-.24-.07-.14-.02-.17,.07-.31,.02-.09-.04-.27-.04-.36-.02-.07,.02-.66-.03-.71-.03-.7-.02-1.09,.02-1.92,.02-.18,0-.33-.02-.51,.02-.12,.03-.25,0-.37,.03-.16,.03-.3,.06-.45,.08-.17,.02-.51,.21,.16,.23,.04,0,.15,.02,.19,.03,.09,.02,.17-.01,.25,.02,0,0,.04,0,.04,0,.02,.03,.05,0,.08,.04,.16,0,.31-.02,.46,0,.42,.04,1.5,.25,.76,.27"/></g></svg>