<?xml version="1.0" encoding="UTF-8"?><svg id="_레이어_2" xmlns="http://www.w3.org/2000/svg" viewBox="0 0 21.09 21.5"><defs><style>.cls-1{fill:none;stroke:#fff;stroke-linecap:round;stroke-linejoin:round;stroke-width:1.5px;}</style></defs><g id="_타이틀"><path class="cls-1" d="M4.56,16.87h-1.65c-.3,0-.58-.06-.84-.17-.26-.11-.49-.27-.69-.46-.2-.2-.35-.43-.46-.69-.11-.26-.17-.54-.17-.84v-5.14c0-.3,.06-.58,.17-.84,.11-.26,.27-.49,.46-.69,.2-.2,.43-.35,.69-.46,.26-.11,.54-.17,.84-.17h15.26c.3,0,.58,.06,.84,.17,.26,.11,.49,.27,.69,.46,.2,.2,.35,.43,.46,.69,.11,.26,.17,.54,.17,.84v5.14c0,.3-.06,.58-.17,.84-.11,.26-.27,.49-.46,.69-.2,.2-.43,.35-.69,.46-.26,.11-.54,.17-.84,.17h-1.65"/><rect class="cls-1" x="5.59" y="13.43" width="9.9" height="7.32"/><polyline class="cls-1" points="5.59 6.77 5.59 .75 15.5 .75 15.5 6.77"/></g></svg>