<?xml version="1.0" encoding="UTF-8"?><svg id="_레이어_2" xmlns="http://www.w3.org/2000/svg" viewBox="0 0 33.91 24.15"><defs><style>.cls-1,.cls-2{fill:#fff;}.cls-2{fill-rule:evenodd;}</style></defs><g id="Layer_1"><path class="cls-2" d="M15.69,9.99c-2.22-2.1-5.46,.87-3.6,3.64,.95,1.42,3.4,2.34,6.92,2.16,.5-.03,.67-.14,.17-.36-3.08-1.4-1.85-3.88-3.49-5.43Z"/><path class="cls-2" d="M8.5,16.46c.23-.44,.29-.54-.3-.27-3.34,1.55-3.99-.95-6.21-.62-1.23,.18-2.17,1.37-1.96,2.67,.25,1.55,2.05,2.14,3.48,1.99,2.95-.3,4.61-3.05,4.99-3.77Z"/><path class="cls-2" d="M5.95,15.4c.12,.1,.27,.29-.16,.23C.46,14.83-.51,11.67,.87,10.12c.74-.82,2.31-.93,3.06-.1,1.43,1.57-.11,3.59,2.01,5.39Z"/><path class="cls-2" d="M25.19,2.76c.52,.02,.65,.12,.13,.33-1.26,.5-2.52,1.43-2.57,3.55-.07,3.04-4.48,2.24-3.98-.95,.56-3.6,5.82-2.96,6.43-2.94Z"/><path class="cls-2" d="M9.62,18.25c.91,2.71,4.71,1.76,4.39-.84-.27-2.24-2.95-1.52-2.95-3.99,0-.3-.03-.55-.33-.09-.84,1.28-1.57,3.57-1.12,4.91Z"/><path class="cls-2" d="M26.01,16.78c-2.34,1.66-3.2-.35-4.88-.44-1.94-.11-2.5,3.04,0,3.62,1.16,.27,4.01-.28,5.19-3.13,.06-.15,0-.32-.3-.06Z"/><path class="cls-2" d="M25.33,14.7c.52-2.66-1.68-5.14-1.89-5.41-.05-.07-.5-.61-.31,.18,.58,2.38-.65,3.05-1.02,4.75-.54,2.44,2.77,2.79,3.22,.47Z"/><path class="cls-1" d="M11.78,9.3c-2.8,.28-4.43,1.07-5.31,1.75-1.3,1.01-1.14,2.61-.37,3.39,.81,.82,2.38,1.07,3.39-.17,1.22-1.51,.03-3.34,2.42-4.73,.35-.2,.13-.27-.13-.24Z"/><path class="cls-2" d="M29.92,9.64c-.53,.23-.94,.65-1.23,1.13-.31,.51-.43,1.11-.75,1.62-.27,.44-.62,.86-1.03,1.17-.23,.17-.35,.41,.08,.32,.35-.07,.84-.14,1.44-.08,.6,.06,1.4,.35,1.76,.44,.74,.25,1.61,.24,2.18-.36,.92-.97,.8-2.76-.1-3.71-.59-.62-1.54-.88-2.34-.54Z"/><path class="cls-2" d="M32.09,15.16c-1.88-.29-2.8,1.14-5.57-.77-.25-.17-.45-.31-.27,.25,.3,.91,1.62,4.57,4.18,5.22,3.75,.95,4.74-4.13,1.67-4.7Z"/><path class="cls-2" d="M14.31,1.64c-.41,2.08,1.2,3.06,.81,6.12-.03,.24,.19,.24,.25,.1,1.22-2.8,3.04-2.7,3.73-4.86C20.13-.23,14.85-1.11,14.31,1.64Z"/><path class="cls-2" d="M6.35,9.66c2.48,.19,2.61-1.63,7.02-1.39,.36,.02,.32-.21,.08-.28-3.95-1.19-4.63-3.72-6.68-3.8-3.36-.13-3.83,5.21-.42,5.47Z"/><path class="cls-2" d="M9.35,4.5c1.52,1.95,2.7,.66,4.45,2.55,.25,.28,.45,.14,.25-.18-1.22-1.97,.15-3.75-.87-5.05-1.92-2.45-5.61,.39-3.82,2.69Z"/><path class="cls-2" d="M23.57,6.53c0,2.07,2.28,3.03,2.42,6.9,0,.26,.24,.26,.29,.01,.75-3.85,2.86-4.59,3.05-6.81,.28-3.42-5.76-4.04-5.76-.1Z"/><path class="cls-2" d="M21.54,13.32c.92-.8,1.24-2.22,.4-3.25-1.54-1.76-3.19,0-4.76-2.95-.26-.48-.43-.38-.33,.14,.32,1.8-.27,3.58,.78,5.17,1.04,1.58,2.9,1.75,3.9,.88Z"/><path class="cls-2" d="M16.79,16.66c-1.12,0-2.03,.91-2.03,2.03v5.46h4.06v-5.46c0-1.12-.91-2.03-2.03-2.03Z"/></g></svg>