<?xml version="1.0" encoding="UTF-8"?><svg id="_레이어_2" xmlns="http://www.w3.org/2000/svg" viewBox="0 0 341.09 150.42"><defs><style>.cls-1{fill:#fff;}</style></defs><g id="_레이어_1-2"><path class="cls-1" d="M333.64,54.04h-33.38c-4.11,0-7.45,3.34-7.45,7.45s3.33,7.46,7.45,7.46h33.38c4.1,0,7.44-3.35,7.44-7.46s-3.35-7.45-7.44-7.45"/><path class="cls-1" d="M289.22,73.36c-4.11,0-7.45,3.34-7.45,7.45v19.91c0,4.11,3.34,7.45,7.45,7.45s7.44-3.34,7.44-7.45v-19.91c0-4.11-3.34-7.45-7.44-7.45"/><path class="cls-1" d="M40.82,80.51H7.44c-4.11,0-7.44,3.34-7.44,7.46s3.34,7.46,7.44,7.46H40.82c4.1,0,7.44-3.35,7.44-7.46s-3.34-7.46-7.44-7.46"/><path class="cls-1" d="M51.87,99.83c-4.11,0-7.45,3.34-7.45,7.45v19.91c0,4.11,3.34,7.45,7.45,7.45s7.44-3.34,7.44-7.45v-19.91c0-4.11-3.33-7.45-7.44-7.45"/><path class="cls-1" d="M289.04,135.56h-91.36v-11.51c0-2.43-1.97-4.4-4.39-4.4H121.63v-12.34c0-4.1-3.33-7.43-7.43-7.43s-7.43,3.33-7.43,7.43v15.75c0,6.32,5.14,11.46,11.46,11.46h64.59v4.45c0,6.32,5.14,11.46,11.46,11.46h94.76c4.1,0,7.43-3.33,7.43-7.43s-3.33-7.43-7.43-7.43"/><path class="cls-1" d="M51.87,41.29c-4.11,0-7.45,3.34-7.45,7.45v19.9c0,4.11,3.34,7.45,7.45,7.45s7.44-3.34,7.44-7.45v-19.9c0-4.11-3.33-7.45-7.44-7.45"/><path class="cls-1" d="M178.92,80.51h-40.26v-11.64h16.91c4.1,0,7.43-3.33,7.43-7.43s-3.33-7.43-7.43-7.43h-41.41v-17.54c0-4.1-3.33-7.43-7.43-7.43s-7.43,3.33-7.43,7.43v20.95c0,6.32,5.14,11.46,11.46,11.46h12.99v11.64H62.93c-4.11,0-7.44,3.34-7.44,7.46s3.33,7.46,7.44,7.46h119.77c2.06,0,3.69-1.32,4.54-2.17l13.6-13.58,33.51,33.39c1.41,1.41,3.3,2.17,5.22,2.17,.96,0,1.92-.2,2.84-.57,2.76-1.15,4.56-3.84,4.6-6.83v-38.88h31.14c4.11,0,7.45-3.34,7.45-7.46s-3.34-7.46-7.45-7.46h-31.14s0-46.58,0-46.58c0-4.11-3.33-7.46-7.45-7.46s-7.45,3.35-7.45,7.46V90.01l-20.56-20.53c-1.95-1.97-3.18-4.33-3.18-6.93h0s0-13,0-13c0-4.12-3.35-7.45-7.45-7.45s-7.45,3.34-7.45,7.45v13c0,2.6-1.24,4.64-3.19,6.6l-11.35,11.35Z"/><path class="cls-1" d="M289.21,49.63c4.11,0,7.45-3.34,7.45-7.45V22.27c0-4.11-3.34-7.45-7.45-7.45s-7.44,3.34-7.44,7.45v19.9c0,4.11,3.34,7.45,7.44,7.45"/></g></svg>