<?xml version="1.0" encoding="UTF-8"?><svg id="_레이어_2" xmlns="http://www.w3.org/2000/svg" xmlns:xlink="http://www.w3.org/1999/xlink" viewBox="0 0 64.55 64.05"><defs><style>.cls-1{fill:#ffe143;}.cls-2{fill:#ffd300;}.cls-3{stroke:#8a1601;stroke-width:.25px;}.cls-3,.cls-4,.cls-5{fill:none;}.cls-6{fill:#8a1601;}.cls-7{clip-path:url(#clippath);}.cls-8{fill:#fbba00;}.cls-9{fill:#fdc600;}.cls-5{stroke:#ffe143;stroke-miterlimit:10;stroke-width:.5px;}</style><clipPath id="clippath"><rect class="cls-4" width="64.55" height="64.05"/></clipPath></defs><g id="_레이어_1-2"><g class="cls-7"><path class="cls-8" d="M4.85,21.13s-1.2-3.41,1.95-5.28c0,0,2.64-1.27,4.43,.94,0,0-.51-2.65,1.53-3.75,0,0,2.47-1.54,4.51,.77,0,0-.42-5.79,4.68-5.03,0,0-1.62-3.49,1.44-5.11,0,0,2.3-1.02,4.01,.85,0,0-.51-4.09,4.09-4.51,0,0,3.57-.25,4.26,3.66,0,0,2.47-2.13,5.19-.17,0,0,2.38,1.71,1.87,4.35,0,0,4.26-.17,4.52,5.02,0,0,4-.93,5.45,2.73,0,0,6.22-2.05,6.64,4.09,0,0,4.6,.25,5.11,4.68,0,0,.25,2.9-2.05,4.09,0,0,1.79,1.27,1.28,4.6,0,0-.26,2.56-3.58,3.24,0,0,2.13,5.28-3.83,5.88,0,0,3.31,4.51-.43,6.22,0,0,2.38,2.47,1.28,5.11,0,0-1.02,2.04-3.41,2.04,0,0,1.96,3.83-1.02,5.88,0,0-2.38,1.87-5.62,0,0,0-.76,2.3-4.17,2.47,0,0-2.47,0-3.91-2.47,0,0-.85,1.19-2.98,1.19,0,0-2.9-.68-3.75-2.89,0,0-1.11,2.47-3.49,2.47,0,0-2.05-.09-2.73-.94,0,0-.43,2.82-4.26,2.82,0,0-1.96-.18-2.98-2.22,0,0-3.49,2.13-6.31-.51,0,0-1.78-.94-1.62-4.68,0,0-3.49-1.19-3.74-4.43,0,0-.09-2.13,1.28-3.49,0,0-4.43-2.73-.51-6.73,0,0-4.77-.76-2.81-5.19,0,0-3.41-.34-3.92-3.48,0,0-.17-1.97,1.02-3.59,0,0-3.32-2.64-1.96-6.05,0,0,1.11-2.89,4.52-2.55"/><path class="cls-2" d="M28.26,6.99s-1.61-5.63,2.9-5.96c0,0,3.48-1.03,4,4.68,0,0,2.21-3.32,4.93-1.45,0,0,2.73,1.79,.69,5.11,0,0,2.89-1.36,4.43,.26,0,0,1.96,1.44,0,4.6,0,0-2.81,4.43-3.58,5.79,0,0,3.75-4.6,4.59-5.19,0,0,2.65-2.47,4.69-.42,0,0,1.19,1.19,.6,3.06,0,0,3.92-3.24,5.88-.34,0,0,1.96,2.38-.68,4.6,0,0,4.68-2.22,6.13,.69,0,0,2.04,4.08-2.3,5.78,0,0,2.21,.43,2.13,3.67,0,0,.34,3.75-5.02,3.15,0,0,2.64,1.44,1.44,4.26,0,0-.85,2.38-5.45,1.02l-6.39-1.36-.17,.68,6.98,2.13s2.89,.85,2.39,3.74c0,0-.35,2.47-2.98,2.3,0,0,3.92,2.3,2.47,5.2,0,0-.85,2.13-4.17,1.27,0,0,3.23,4.26-.17,6.3,0,0-3.49,2.05-5.96-2.47,0,0,1.19,3.91-2.13,4.51,0,0-3.32,.93-4.51-3.15,0,0-.76,1.87-2.81,2.04,0,0-2.47,.09-2.98-1.96,0,0-1.28-6.73-1.36-8.6,0,0,.34,6.3-1.2,8.6,0,0-.59,1.36-2.89,1.28,0,0-1.87-.26-2.13-1.7,0,0-.25,3.84-3.24,3.91,0,0-3.06,.35-3.41-3.66,0,0-2.55,4.01-5.71,1.53,0,0-2.81-2.47,1.11-6.72,0,0-4.6,2.47-6.05-.85,0,0-1.02-3.84,2.56-4.77,0,0-3.32-.34-3.66-2.98,0,0-.09-4.01,7.92-5.28l-.43-1.02s-7.24,3.07-8.51,.6c0,0-1.7-2.64,1.54-4.35,0,0-5.45,.6-5.71-2.55,0,0-.25-3.4,3.93-3.4,0,0-6.57-.94-4.69-5.46,0,0,1.78-4,5.88-1.1,0,0-3.4-3.5-.17-5.88,0,0,2.98-2.04,5.37,1.54,0,0-1.7-3.06,.93-4.85,0,0,3.5-2.3,7.24,5.45l.17,.6,1.02-.68-.77-.51s-4.17-5.8-2.04-8.35c0,0,2.22-2.3,4.26,.09,0,0-2.39-4,.51-5.79,0,0,2.9-2.21,4.6,2.38"/><polygon class="cls-9" points="31.66 5.71 30.31 7.92 33.29 7.92 31.66 5.71"/><path class="cls-8" d="M30.64,14.4l.77-2.39s.09-.51,.43,0c0,0,.76,1.11,1.11,2.3,0,0-1.71-.08-2.3,.09"/><path class="cls-8" d="M34.64,14.4s.94-4.43,2.3-6.13c0,0,.85-1.11,.77,.26,0,0-.34,4.17-.93,6.21,0,0-1.54-.25-2.13-.34"/><path class="cls-8" d="M40.18,16.1s-1.54-.85-1.96-.93c0,0,1.87-2.13,2.98-3.07,0,0,1.61-1.36,1.02,.43,0,0-1.27,2.47-2.04,3.57"/><path class="cls-8" d="M28.51,14.4s-1.78-4-2.72-5.11c0,0-.93-1.11-.77,.43,0,0,.77,4,1.37,5.27,0,0,1.7-.51,2.12-.59"/><path class="cls-8" d="M24.68,15.68s-1.28-1.79-2.73-3.15c0,0-1.36-1.36-.68,.43,0,0,1.45,2.89,1.88,3.58,0,0,1.1-.77,1.53-.85"/><path class="cls-8" d="M17.61,20.44s-.68-1.87-2.81-3.15c0,0-.69-.51-.43,.51,0,0,.6,2.39,1.88,4.26,0,0,.93-1.2,1.36-1.62"/><path class="cls-8" d="M15.32,23.34s-3.92-2.13-5.37-2.64c0,0-.94-.34-.43,.43,0,0,1.96,2.55,4.68,4.35,0,0,.85-1.88,1.11-2.13"/><path class="cls-8" d="M13.53,27.26s-.43,1.45-.52,1.87c0,0-1.62-1.02-2.05-1.53,0,0,.43-.43,2.56-.34"/><path class="cls-8" d="M12.59,31.43s-.34,1.61-.25,2.3c0,0-4.69-.17-5.54-.43,0,0-.94-.26,.52-.85,0,0,3.57-.86,5.27-1.02"/><path class="cls-8" d="M12.34,35.52s0,1.11,.25,1.7c0,0-3.49,.85-4.08,.43,0,0-.34-.68,3.83-2.13"/><path class="cls-8" d="M14.64,43.87s.51,1.11,.94,1.53c0,0-4.18,1.36-4.94,.59,0,0-.51-.76,4.01-2.12"/><path class="cls-8" d="M16.76,47.01s.85,1.28,1.53,1.62c0,0-3.32,1.96-4.69,2.81,0,0-1.62,.85-1.02-.51,0,0,1.45-2.05,4.17-3.92"/><path class="cls-8" d="M19.66,49.57s.68,.77,1.62,1.11c0,0-1.36,1.53-1.96,1.61,0,0-.51-.17,.34-2.72"/><path class="cls-8" d="M16.08,54.17s1.1,1.1,1.96,1.53c0,0-1.87,.85-2.47,1.19,0,0,.34-2.04,.51-2.72"/><path class="cls-8" d="M23.24,52.2s1.53,.6,2.13,.6c0,0-1.62,3.57-1.97,4.85,0,0-.77,1.45-.77-.25,0,0,.09-3.24,.6-5.2"/><path class="cls-8" d="M27.24,53.49l1.53,.26s-.08,3.49-.77,3.92c0,0-1.11-1.02-.76-4.17"/><path class="cls-8" d="M35.83,53.66s1.45-.34,1.97-.6c0,0-.52,4.85-1.37,4.76,0,0-.94-.25-.6-4.17"/><path class="cls-8" d="M39.67,52.29s1.45-.34,1.7-.68c0,0,1.96,5.96,1.02,6.64,0,0-1.28,0-2.73-5.96"/><path class="cls-8" d="M43.16,50.42s1.11-.6,1.36-.94c0,0,1.19,1.79,.77,2.3,0,0-.93,0-2.13-1.37"/><path class="cls-8" d="M46.4,55.1s1.62-.76,1.87-1.19c0,0,.26,1.62,.09,2.63,0,0-1.62-.59-1.96-1.45"/><path class="cls-8" d="M46.4,47.7s.85-.94,1.11-1.45c0,0,4.77,2.81,4.43,4,0,0-.68,.59-5.54-2.55"/><path class="cls-8" d="M48.78,44.46s.59-.94,.76-1.45c0,0,3.41,1.45,3.24,1.87,0,0-2.3,.17-4-.42"/><path class="cls-8" d="M51.68,34.41s0,1.28-.17,2.04c0,0,3.74,1.36,4.26,.52,0,0,.76-1.02-4.09-2.56"/><path class="cls-8" d="M51.42,30.49s.25,1.1,.17,1.7c0,0,5.03,.51,6.22-1.19,0,0-.6-1.11-6.39-.51"/><path class="cls-8" d="M55.68,24.36s.76,2.13,.76,2.81c0,0,1.87-2.04,2.22-2.21,0,0-2.3-.34-2.99-.59"/><path class="cls-8" d="M50.83,28.28l-.59-1.7s-.09-.6,.59-.51c0,0,2.13,.09,2.05,.43,0,0-1.11,1.36-2.05,1.79"/><path class="cls-8" d="M48.02,22.83s.85,1.53,1.02,1.96c0,0,2.98-2.98,3.84-4.35,0,0,.85-1.44-.51-.59,0,0-3.33,2.22-4.35,2.98"/><path class="cls-8" d="M45.71,19.76s1.11,1.02,1.36,1.53c0,0,1.96-3.32,1.79-4.34,0,0-.94-.26-3.16,2.81"/><path class="cls-2" d="M50.91,34.07c0,10.49-8.51,18.99-18.99,18.99s-18.99-8.5-18.99-18.99S21.43,15.08,31.92,15.08s18.99,8.51,18.99,18.99"/><path class="cls-3" d="M51.51,33.77c0,10.66-8.64,19.3-19.29,19.3s-19.29-8.64-19.29-19.3S21.57,14.48,32.22,14.48s19.29,8.64,19.29,19.28Z"/><path class="cls-6" d="M50.09,33.77c0,9.88-8,17.88-17.87,17.88s-17.87-8-17.87-17.88,7.99-17.87,17.87-17.87,17.87,8.01,17.87,17.87"/><path class="cls-1" d="M27.5,39.22l.03,.37c0,.12,0,.24-.02,.34-.02,.11-.04,.21-.06,.31-.04,.1-.09,.17-.16,.22-.06,.05-.13,.07-.21,.07h-.15s-.07,0-.09,0c-.03,0-.06-.02-.09-.03-.08-.01-.14-.02-.18-.03-.05,0-.07-.02-.09-.02l-.15,.09c-.16-.03-.3-.06-.44-.09-.13-.02-.25-.03-.37-.03-.09,0-.2,0-.32,.02-.13,.01-.25,.03-.39,.03-.09,.01-.17,.02-.23,.03-.06,0-.12,0-.16,0h-.17c-.07,0-.14,0-.2,0-.06,0-.13-.01-.2-.03-.2-.03-.36-.05-.47-.07-.12,0-.19-.02-.23-.02-.03,.04-.07,.06-.11,.08-.04,.02-.08,.04-.13,.05-.05,.01-.11,.02-.16,.02-.05,0-.09,0-.13,0h-1.17s-.03,0-.04,0c-.02,0-.03-.01-.05-.02-.03-.01-.06-.02-.09-.03-.03-.01-.05-.02-.06-.02-.03,0-.06,.01-.1,.03-.03,.02-.07,.04-.12,.08-.07,.03-.13,.06-.17,.07-.05,.02-.09,.03-.13,.03h-.12s-.1,0-.17-.02c-.07-.01-.14-.02-.21-.03-.08,0-.17-.02-.25-.05-.19-.03-.34-.05-.44-.06s-.16-.02-.17-.01c-.02,0-.06,.01-.12,.02-.06,0-.13,0-.2,0h-.46c-.06,0-.12,0-.17,0-.05,0-.1-.01-.14-.01-.4-.02-.71-.04-.92-.05-.22,0-.34-.02-.37-.02-.04-.03-.07-.07-.1-.11-.03-.04-.06-.07-.08-.11-.03-.03-.06-.08-.08-.12-.02-.05-.03-.09-.03-.13,.01-.07,.03-.13,.05-.18,.02-.05,.03-.11,.04-.15,.01-.05,.02-.08,.03-.1,0-.03,.01-.04,.03-.06,.03-.12,.08-.21,.13-.27,.06-.05,.12-.08,.19-.08,.02,0,.05,.03,.07,.03,.03,.01,.06,.02,.09,.02,.02,.01,.05,.02,.07,.02h.23s.07,0,.11,0c.04,0,.08-.01,.12-.03,.07,0,.14-.03,.2-.03,.06-.01,.1-.02,.14-.02l.15,.02s.07,0,.11-.02c.04-.02,.09-.04,.16-.07,.08,0,.16,0,.24,.01,.08,.01,.16,.03,.22,.07l.16-.08,.14,.1h1.9s.1-.02,.2-.04c.1-.02,.25-.02,.45-.02,.17,0,.31,0,.43,0,.12-.01,.2-.01,.26-.01,.12,0,.25,0,.38,.01,.13,0,.28,0,.44,0,.13,0,.27,0,.43,0,.15,0,.3,.01,.46,.01h.43c.07,0,.13,0,.18-.01,.06,0,.11,0,.17,0,.2,0,.38,0,.54-.02,.15-.01,.29-.01,.4-.01,.11-.01,.2-.02,.27-.03,.07,0,.11,0,.14,0,.2,0,.39,.02,.57,.06,.18,.04,.36,.09,.54,.16m-2.03-7.89l-.05,.99c.03,.08,.05,.15,.06,.22,.02,.06,.03,.12,.03,.16,0,.47-.1,.9-.3,1.28-.2,.39-.5,.73-.87,1.03-.37,.29-.77,.51-1.18,.65-.42,.15-.86,.22-1.32,.22-.17,0-.35-.03-.55-.08-.2-.05-.42-.13-.66-.24-.13-.05-.26-.09-.38-.15-.12-.05-.22-.1-.31-.16-.24-.1-.44-.26-.61-.5-.17-.23-.33-.51-.46-.86-.1-.22-.19-.42-.25-.59-.06-.17-.11-.3-.14-.4,.05-.37,.08-.67,.12-.89,.03-.23,.06-.38,.08-.46,.07-.34,.14-.61,.22-.82,.08-.21,.16-.36,.25-.45,.06-.05,.1-.1,.15-.14,.07-.06,.13-.11,.19-.15,.06-.05,.09-.08,.12-.1,.06-.06,.11-.11,.17-.17,.06-.06,.12-.12,.18-.18,.07-.06,.13-.12,.2-.18,.06-.06,.13-.13,.2-.19,.14-.1,.28-.18,.44-.23,.16-.05,.34-.07,.55-.07,.15,0,.3,0,.44,.01,.15,.01,.29,.02,.43,.02,.13,.02,.26,.04,.4,.06,.14,.02,.27,.04,.4,.08,.12,0,.27,.04,.46,.11,.18,.08,.4,.18,.67,.32,.23,.13,.42,.25,.55,.36,.14,.11,.21,.19,.24,.26,.01,.06,.05,.17,.11,.31,.06,.14,.15,.32,.27,.55,.05,.1,.08,.18,.11,.25,.03,.07,.04,.1,.04,.12m-3.28-.77s-.08,0-.12-.02c-.04,0-.08-.03-.12-.06-.06-.02-.1-.04-.13-.06-.03-.01-.06-.02-.09-.02-.2,.06-.37,.13-.51,.19-.14,.07-.26,.13-.36,.19-.1,.07-.19,.15-.28,.24-.09,.09-.17,.21-.25,.34,0,.02-.02,.04-.03,.07,0,.02-.03,.05-.05,.08-.01,.03-.02,.07-.04,.1-.02,.03-.03,.07-.04,.12-.03,.1-.07,.19-.09,.26-.03,.07-.04,.14-.04,.19,0,.13,.02,.24,.04,.33,.02,.1,.03,.18,.06,.24,0,.1,.03,.21,.06,.33,.03,.11,.08,.26,.14,.41l.17,.08,.05,.17c0,.06,.07,.11,.17,.17,.1,.07,.24,.13,.42,.19,.16,.09,.31,.15,.44,.18,.13,.03,.23,.05,.29,.05,.23,0,.45-.04,.68-.14,.23-.08,.47-.22,.7-.42,.21-.19,.38-.39,.5-.6,.12-.2,.19-.42,.19-.65,0-.27-.05-.52-.14-.75-.08-.23-.2-.44-.35-.64-.17-.18-.35-.32-.56-.43-.21-.1-.44-.16-.69-.16m8.51,10.63c-.09,.03-.16,.06-.23,.09-.06,.02-.12,.05-.17,.07-.05,.02-.08,.04-.12,.06-.03,.02-.06,.03-.07,.04-.12,.05-.24,.08-.34,.1-.11,.03-.21,.04-.3,.04l-.2-.02c-.09-.05-.16-.09-.22-.14-.06-.05-.1-.09-.13-.13-.03-.03-.06-.08-.08-.14-.02-.06-.03-.13-.03-.21,0-.04,0-.14,.01-.28,.01-.14,.04-.31,.09-.53,0-.05,0-.09,0-.13,0-.05,.01-.08,.01-.12,0-.05,0-.09,0-.13,0-.04,.01-.08,.01-.12s0-.11-.02-.18c-.01-.08-.02-.17-.03-.29-.03-.1-.04-.19-.04-.26v-.3c0-.06,.01-.12,.04-.2,0-.06,.02-.12,.03-.15,0-.04,.02-.06,.02-.07,0-.01,0-.03-.02-.07-.01-.03-.02-.07-.03-.14-.03-.05-.04-.08-.04-.12v-.15s.01-.07,.04-.12c0-.03,.02-.06,.03-.09,0-.03,.02-.05,.02-.07v-3.71s-.01-.1-.03-.17c-.02-.06-.04-.14-.06-.23-.03-.08-.06-.15-.07-.19-.01-.05-.02-.08-.02-.11v-2.56c0-.13,.01-.28,.04-.46,0-.09,0-.16,0-.24,0-.06,0-.12,0-.17,.01-.05,.02-.09,.03-.11,0-.02,0-.04,0-.05l-.07-1.29v-.47c0-.1,0-.2,.02-.3,0-.1,.02-.2,.06-.3,.01-.08,.04-.15,.09-.24,.04-.08,.1-.15,.17-.22h.55c.12,0,.25,.01,.39,.04,.13,.03,.27,.06,.43,.11,.03,.06,.06,.15,.07,.24,.02,.09,.04,.2,.06,.33,.02,.12,.02,.25,.04,.39,0,.14,.02,.28,.02,.43,0,.06,0,.11-.01,.16,0,.05,0,.1,0,.16v.79l.05,2.03c0,.22,0,.42-.01,.61-.01,.19-.02,.37-.02,.55-.02,.18-.04,.38-.05,.6,0,.22-.02,.45-.02,.7,0,.2,0,.46,0,.78,0,.32,.02,.68,.05,1.08,0,.43,.02,.81,.03,1.12,0,.32,.01,.57,.01,.77l-.03,1.38c0,.06,0,.15,.01,.24,0,.09,.02,.21,.04,.34,0,.14,.02,.25,.03,.35,.01,.11,.02,.19,.02,.25v.69c-.01,.05-.02,.1-.03,.14-.01,.04-.02,.08-.02,.11-.01,.04-.02,.07-.02,.1v.07Z"/><path class="cls-5" d="M27.5,39.22l.03,.37c0,.12,0,.24-.02,.34-.02,.11-.04,.21-.06,.31-.04,.1-.09,.17-.16,.22-.06,.05-.13,.07-.21,.07h-.15s-.07,0-.09,0c-.03,0-.06-.02-.09-.03-.08-.01-.14-.02-.18-.03-.05,0-.07-.02-.09-.02l-.15,.09c-.16-.03-.3-.06-.44-.09-.13-.02-.25-.03-.37-.03-.09,0-.2,0-.32,.02-.13,.01-.25,.03-.39,.03-.09,.01-.17,.02-.23,.03-.06,0-.12,0-.16,0h-.17c-.07,0-.14,0-.2,0-.06,0-.13-.01-.2-.03-.2-.03-.36-.05-.47-.07-.12,0-.19-.02-.23-.02-.03,.04-.07,.06-.11,.08-.04,.02-.08,.04-.13,.05-.05,.01-.11,.02-.16,.02-.05,0-.09,0-.13,0h-1.17s-.03,0-.04,0c-.02,0-.03-.01-.05-.02-.03-.01-.06-.02-.09-.03-.03-.01-.05-.02-.06-.02-.03,0-.06,.01-.1,.03-.03,.02-.07,.04-.12,.08-.07,.03-.13,.06-.17,.07-.05,.02-.09,.03-.13,.03h-.12s-.1,0-.17-.02c-.07-.01-.14-.02-.21-.03-.08,0-.17-.02-.25-.05-.19-.03-.34-.05-.44-.06s-.16-.02-.17-.01c-.02,0-.06,.01-.12,.02-.06,0-.13,0-.2,0h-.46c-.06,0-.12,0-.17,0-.05,0-.1-.01-.14-.01-.4-.02-.71-.04-.92-.05-.22,0-.34-.02-.37-.02-.04-.03-.07-.07-.1-.11-.03-.04-.06-.07-.08-.11-.03-.03-.06-.08-.08-.12-.02-.05-.03-.09-.03-.13,.01-.07,.03-.13,.05-.18,.02-.05,.03-.11,.04-.15,.01-.05,.02-.08,.03-.1,0-.03,.01-.04,.03-.06,.03-.12,.08-.21,.13-.27,.06-.05,.12-.08,.19-.08,.02,0,.05,.03,.07,.03,.03,.01,.06,.02,.09,.02,.02,.01,.05,.02,.07,.02h.23s.07,0,.11,0c.04,0,.08-.01,.12-.03,.07,0,.14-.03,.2-.03,.06-.01,.1-.02,.14-.02l.15,.02s.07,0,.11-.02c.04-.02,.09-.04,.16-.07,.08,0,.16,0,.24,.01,.08,.01,.16,.03,.22,.07l.16-.08,.14,.1h1.9s.1-.02,.2-.04c.1-.02,.25-.02,.45-.02,.17,0,.31,0,.43,0,.12-.01,.2-.01,.26-.01,.12,0,.25,0,.38,.01,.13,0,.28,0,.44,0,.13,0,.27,0,.43,0,.15,0,.3,.01,.46,.01h.43c.07,0,.13,0,.18-.01,.06,0,.11,0,.17,0,.2,0,.38,0,.54-.02,.15-.01,.29-.01,.4-.01,.11-.01,.2-.02,.27-.03,.07,0,.11,0,.14,0,.2,0,.39,.02,.57,.06,.18,.04,.36,.09,.54,.16Zm-2.03-7.89l-.05,.99c.03,.08,.05,.15,.06,.22,.02,.06,.03,.12,.03,.16,0,.47-.1,.9-.3,1.28-.2,.39-.5,.73-.87,1.03-.37,.29-.77,.51-1.18,.65-.42,.15-.86,.22-1.32,.22-.17,0-.35-.03-.55-.08-.2-.05-.42-.13-.66-.24-.13-.05-.26-.09-.38-.15-.12-.05-.22-.1-.31-.16-.24-.1-.44-.26-.61-.5-.17-.23-.33-.51-.46-.86-.1-.22-.19-.42-.25-.59-.06-.17-.11-.3-.14-.4,.05-.37,.08-.67,.12-.89,.03-.23,.06-.38,.08-.46,.07-.34,.14-.61,.22-.82,.08-.21,.16-.36,.25-.45,.06-.05,.1-.1,.15-.14,.07-.06,.13-.11,.19-.15,.06-.05,.09-.08,.12-.1,.06-.06,.11-.11,.17-.17,.06-.06,.12-.12,.18-.18,.07-.06,.13-.12,.2-.18,.06-.06,.13-.13,.2-.19,.14-.1,.28-.18,.44-.23,.16-.05,.34-.07,.55-.07,.15,0,.3,0,.44,.01,.15,.01,.29,.02,.43,.02,.13,.02,.26,.04,.4,.06,.14,.02,.27,.04,.4,.08,.12,0,.27,.04,.46,.11,.18,.08,.4,.18,.67,.32,.23,.13,.42,.25,.55,.36,.14,.11,.21,.19,.24,.26,.01,.06,.05,.17,.11,.31,.06,.14,.15,.32,.27,.55,.05,.1,.08,.18,.11,.25,.03,.07,.04,.1,.04,.12Zm-3.28-.77s-.08,0-.12-.02c-.04,0-.08-.03-.12-.06-.06-.02-.1-.04-.13-.06-.03-.01-.06-.02-.09-.02-.2,.06-.37,.13-.51,.19-.14,.07-.26,.13-.36,.19-.1,.07-.19,.15-.28,.24-.09,.09-.17,.21-.25,.34,0,.02-.02,.04-.03,.07,0,.02-.03,.05-.05,.08-.01,.03-.02,.07-.04,.1-.02,.03-.03,.07-.04,.12-.03,.1-.07,.19-.09,.26-.03,.07-.04,.14-.04,.19,0,.13,.02,.24,.04,.33,.02,.1,.03,.18,.06,.24,0,.1,.03,.21,.06,.33,.03,.11,.08,.26,.14,.41l.17,.08,.05,.17c0,.06,.07,.11,.17,.17,.1,.07,.24,.13,.42,.19,.16,.09,.31,.15,.44,.18,.13,.03,.23,.05,.29,.05,.23,0,.45-.04,.68-.14,.23-.08,.47-.22,.7-.42,.21-.19,.38-.39,.5-.6,.12-.2,.19-.42,.19-.65,0-.27-.05-.52-.14-.75-.08-.23-.2-.44-.35-.64-.17-.18-.35-.32-.56-.43-.21-.1-.44-.16-.69-.16Zm8.51,10.63c-.09,.03-.16,.06-.23,.09-.06,.02-.12,.05-.17,.07-.05,.02-.08,.04-.12,.06-.03,.02-.06,.03-.07,.04-.12,.05-.24,.08-.34,.1-.11,.03-.21,.04-.3,.04l-.2-.02c-.09-.05-.16-.09-.22-.14-.06-.05-.1-.09-.13-.13-.03-.03-.06-.08-.08-.14-.02-.06-.03-.13-.03-.21,0-.04,0-.14,.01-.28,.01-.14,.04-.31,.09-.53,0-.05,0-.09,0-.13,0-.05,.01-.08,.01-.12,0-.05,0-.09,0-.13,0-.04,.01-.08,.01-.12s0-.11-.02-.18c-.01-.08-.02-.17-.03-.29-.03-.1-.04-.19-.04-.26v-.3c0-.06,.01-.12,.04-.2,0-.06,.02-.12,.03-.15,0-.04,.02-.06,.02-.07,0-.01,0-.03-.02-.07-.01-.03-.02-.07-.03-.14-.03-.05-.04-.08-.04-.12v-.15s.01-.07,.04-.12c0-.03,.02-.06,.03-.09,0-.03,.02-.05,.02-.07v-3.71s-.01-.1-.03-.17c-.02-.06-.04-.14-.06-.23-.03-.08-.06-.15-.07-.19-.01-.05-.02-.08-.02-.11v-2.56c0-.13,.01-.28,.04-.46,0-.09,0-.16,0-.24,0-.06,0-.12,0-.17,.01-.05,.02-.09,.03-.11,0-.02,0-.04,0-.05l-.07-1.29v-.47c0-.1,0-.2,.02-.3,0-.1,.02-.2,.06-.3,.01-.08,.04-.15,.09-.24,.04-.08,.1-.15,.17-.22h.55c.12,0,.25,.01,.39,.04,.13,.03,.27,.06,.43,.11,.03,.06,.06,.15,.07,.24,.02,.09,.04,.2,.06,.33,.02,.12,.02,.25,.04,.39,0,.14,.02,.28,.02,.43,0,.06,0,.11-.01,.16,0,.05,0,.1,0,.16v.79l.05,2.03c0,.22,0,.42-.01,.61-.01,.19-.02,.37-.02,.55-.02,.18-.04,.38-.05,.6,0,.22-.02,.45-.02,.7,0,.2,0,.46,0,.78,0,.32,.02,.68,.05,1.08,0,.43,.02,.81,.03,1.12,0,.32,.01,.57,.01,.77l-.03,1.38c0,.06,0,.15,.01,.24,0,.09,.02,.21,.04,.34,0,.14,.02,.25,.03,.35,.01,.11,.02,.19,.02,.25v.69c-.01,.05-.02,.1-.03,.14-.01,.04-.02,.08-.02,.11-.01,.04-.02,.07-.02,.1v.07Z"/><path class="cls-1" d="M42.71,39.61s0,.06,.02,.1c0,.03,.02,.07,.02,.1,0,.02,.02,.05,.03,.08,0,.02,.01,.05,.02,.08,0,.05,0,.11,.01,.16,.02,.05,.02,.11,.02,.16,0,.14-.02,.25-.05,.36-.03,.11-.08,.19-.15,.26-.03,0-.05,0-.09,.01-.04,.01-.08,.03-.13,.04-.03,0-.06,.02-.09,.02-.02,.01-.04,.01-.06,.01h-.06s-.19-.02-.53-.06h-.33c-.07,0-.14,0-.22,0-.08,0-.16-.01-.25-.02-.2-.01-.35-.02-.46-.03-.11,0-.17-.01-.17-.01-.02,0-.04,0-.06,.02-.02,.01-.03,.02-.04,.02-.02,0-.04,0-.06,.02-.02,.02-.03,.03-.03,.04-.07-.04-.12-.06-.17-.07-.05-.01-.07-.02-.08-.02-.03,.03-.07,.04-.11,.04-.03,0-.08,0-.14,0-.03,0-.09,0-.16,0-.07,0-.17-.02-.29-.04-.12-.02-.23-.04-.32-.05-.09,0-.16-.01-.23-.01-.03,0-.07,.01-.11,.03-.04,.02-.07,.05-.11,.08-.05,.04-.11,.07-.15,.08-.05,.03-.11,.04-.18,.04-.06,0-.12,0-.18,0-.07,0-.14-.02-.2-.04-.09,0-.16-.02-.22-.03-.05-.01-.09-.02-.12-.02-.03,0-.07,0-.1,.02-.03,.01-.07,.03-.12,.03-.02,.01-.04,.02-.06,.02-.02,.01-.04,.01-.06,.01h-.04s-.04-.02-.1-.05c-.03-.03-.06-.06-.09-.07-.03,0-.06-.01-.09-.01-.02,0-.05,0-.07,.01-.03,.01-.08,.04-.13,.07-.06,.03-.11,.06-.15,.07-.05,0-.08,.02-.11,.02-.22-.03-.43-.05-.65-.07-.22-.02-.43-.05-.63-.07l-1.19,.04c-.19,0-.36,0-.51-.01-.15,0-.28,0-.41-.03-.13,0-.24-.03-.31-.07-.07-.03-.12-.08-.14-.13l-.16-.35c0-.07,.01-.13,.03-.2,.02-.07,.05-.14,.08-.24,.01-.03,.02-.06,.04-.11,0-.04,.01-.07,.01-.09,0-.03,.02-.06,.03-.08,.01-.02,.02-.05,.03-.06l.28,.05h.18s.05,0,.08-.01c.03,0,.06,0,.09,0,.17-.02,.32-.04,.42-.05,.11,0,.18-.01,.21-.01h.16s.07,0,.09,0c.03,0,.05-.01,.08-.01,.19-.03,.34-.04,.44-.06,.1,0,.16-.01,.2-.01,.04,0,.1,0,.15,.04,.05,.02,.11,.05,.17,.08l.42,.05s.1,0,.19-.01c.1,0,.23-.02,.4-.04,.13-.03,.26-.04,.37-.05,.12-.01,.21-.02,.28-.02,.02,0,.07,0,.12,.02,.06,.01,.13,.03,.24,.07,.03,0,.07,.02,.1,.02,.03,0,.07,.01,.12,.01l.03-.08s-.06-.06-.11-.08c-.05-.02-.11-.03-.18-.03-.04,0-.06-.01-.09-.02-.03-.02-.05-.04-.09-.08-.05-.05-.09-.08-.12-.12-.04-.04-.07-.07-.1-.1-.03-.03-.06-.05-.08-.06-.02-.02-.03-.04-.04-.06-.06-.07-.1-.14-.12-.22-.03-.09-.03-.18-.03-.29,0-.24,.02-.44,.07-.62,.05-.18,.14-.32,.28-.42,.12-.1,.26-.19,.45-.25,.18-.06,.39-.09,.63-.09,.19,0,.36,.02,.5,.08,.15,.06,.28,.12,.4,.22,.1,.1,.18,.22,.24,.36,.05,.14,.08,.29,.08,.46,0,.14-.02,.27-.08,.4-.05,.13-.11,.25-.19,.35-.1,.11-.17,.2-.23,.28-.05,.07-.09,.12-.11,.16,0,0,.03,.02,.09,.03,.06,0,.14,0,.24,.02,.12,0,.25,.02,.41,.03,.16,0,.34,.01,.55,.01s.38,0,.54,0c.16,0,.31,0,.45,0h.5s.04,0,.07,0c.03,0,.07-.02,.12-.04,.04-.01,.07-.02,.12-.03,.05-.01,.08-.02,.12-.02,.07,0,.13,0,.19,0,.06,0,.13,.02,.19,.03,.06,0,.15,.01,.29,.04,.14,.02,.32,.06,.53,.11m-1.04-9.07c0,.15-.04,.26-.12,.35-.08,.09-.19,.15-.33,.19-.09,.03-.2,.05-.33,.06-.13,.01-.28,.01-.46,.01-.07-.02-.13-.04-.18-.06-.06-.02-.1-.02-.14-.02-.04,.03-.11,.06-.19,.07-.08,.02-.18,.03-.29,.03-.12,.02-.24,.04-.35,.04h-.97c-.07,0-.12,0-.18,.02-.05,0-.09,.01-.11,.01,.02,.02,.05,.02,.08,.03,.03,0,.05,0,.07,0h.12s.07,.03,.09,.04c.03,.02,.06,.04,.09,.06l.37,.07c.13,0,.28,.06,.44,.19,.16,.12,.33,.32,.51,.56,.16,.26,.3,.49,.39,.69,.09,.2,.15,.37,.15,.5,0,.04,0,.07-.01,.09,0,.03,0,.06,0,.09v.15c-.02,.06-.02,.11-.03,.16,0,.05-.01,.09-.01,.13v.11s.01,.08,.04,.12c0,.07,.02,.12,.03,.16,.01,.04,.02,.06,.02,.08l.02,.08s0,.05-.02,.08c0,.03-.02,.08-.03,.12-.03,.06-.04,.11-.06,.17-.02,.05-.04,.12-.06,.18-.04,.06-.06,.14-.08,.2-.03,.07-.05,.14-.06,.2-.04,.06-.07,.12-.09,.18-.02,.06-.04,.12-.05,.16-.2,.24-.41,.44-.61,.6-.2,.16-.39,.29-.57,.38-.2,.1-.42,.17-.65,.22-.23,.05-.49,.07-.77,.07-.38,0-.71-.03-1-.11-.29-.07-.53-.19-.73-.35-.15-.1-.31-.26-.5-.49-.18-.23-.37-.52-.58-.88-.03-.06-.06-.12-.09-.18-.03-.06-.05-.13-.05-.21-.02-.07-.04-.14-.04-.21v-.26c0-.21,.01-.4,.03-.61,.02-.2,.05-.4,.11-.62,.04-.2,.11-.38,.19-.52,.08-.16,.17-.27,.28-.36,.01,0,.05-.04,.13-.12,.07-.07,.17-.2,.31-.36,.08-.1,.16-.18,.25-.23,.09-.05,.17-.08,.25-.08,.02-.03,.05-.06,.08-.09,.03-.03,.08-.05,.14-.07,0,0,.02,0,.05-.02,.02-.01,.04-.02,.07-.03,.02-.01,.04-.03,.06-.04,.02,0,.04-.02,.06-.03h-.84c-.09,0-.17-.01-.24-.03-.14-.01-.27-.03-.38-.04-.11-.02-.2-.03-.28-.04-.07,0-.13,0-.17-.02-.05-.01-.07-.02-.09-.02-.03,0-.07,0-.11,0-.04,.01-.08,.01-.11,.01-.04,0-.09,0-.15,0-.05,0-.1,0-.16,0-.14,.02-.24,.03-.31,.03h-.16s-.07-.01-.12-.03c-.05-.02-.08-.06-.09-.12-.03-.04-.06-.1-.08-.18-.02-.07-.03-.16-.03-.28,0-.17,0-.31,.03-.43,.01-.12,.04-.23,.08-.32,.03-.08,.1-.14,.19-.18,.09-.04,.23-.07,.39-.07l2.51,.2c.03-.06,.04-.11,.08-.15,.03-.04,.05-.09,.06-.14,.02-.03,.04-.06,.05-.08,0-.02,.03-.04,.04-.05v-.15s0-.1,0-.16c0-.06,0-.13,0-.21-.01-.05-.01-.08-.01-.1v-.27c-.01-.1-.02-.18-.02-.26v-.21c0-.1,0-.19,.01-.26,0-.07,.02-.14,.04-.19,.05,0,.08-.04,.11-.09,.03-.05,.05-.12,.05-.21,.13-.02,.27-.04,.42-.07,.14-.02,.29-.03,.46-.03s.31,.02,.42,.06c.11,.04,.19,.09,.25,.16,.05,.06,.08,.16,.11,.29,.03,.13,.04,.29,.04,.48,0,.04,0,.08,0,.13,0,.04,0,.07,0,.09v.16c-.04,.22-.06,.37-.06,.49,0,.11,0,.18,0,.21v.11s0,.08,.03,.12c0,.03,0,.07,.02,.09,.02,.03,.02,.05,.03,.06,.09,.03,.19,.06,.3,.07,.11,.02,.21,.03,.31,.03,0,0,.02,0,.05,0,.03,0,.04-.02,.07-.03,.02,0,.04-.01,.06-.02,.02,0,.04-.01,.06-.03,.01,0,.03,0,.04,0,.02,0,.04,0,.07,0,0,0,.02,0,.04-.01,.02,0,.03,0,.06,0,.01,0,.02,0,.04,0,.02,0,.03,.02,.05,.03,.02,0,.04,0,.07,.02,.02,0,.05,.02,.08,.02,.04,.02,.09,.04,.13,.05,.04,0,.08,0,.11,0,.03,0,.08,0,.14,0,.06,0,.14-.03,.23-.05,.06-.01,.13-.02,.19-.03,.06,0,.12-.01,.17-.01,.02,0,.06,0,.12,.01,.07,.01,.14,.02,.24,.03,.08,.02,.15,.04,.22,.05,.06,0,.12,0,.17,0,.04,.05,.08,.11,.12,.17,.03,.06,.07,.13,.1,.23,.02,.09,.04,.17,.06,.25,.01,.08,.02,.16,.02,.24m-4.49,2.12s-.07,0-.12,.03c-.05,.01-.09,.03-.14,.06-.04,.02-.07,.04-.1,.06-.04,.02-.07,.03-.1,.04-.03,.02-.07,.05-.11,.07-.04,.02-.08,.05-.11,.07-.09,.03-.17,.09-.24,.17-.07,.08-.12,.17-.17,.27-.03,.06-.06,.15-.1,.26-.04,.11-.07,.22-.1,.33,.02,.24,.06,.46,.11,.64,.06,.19,.14,.35,.24,.48,.13,.18,.27,.31,.44,.4,.16,.08,.37,.12,.6,.12,.17,0,.33-.03,.5-.1,.17-.07,.33-.18,.5-.33,.17-.15,.3-.32,.38-.48,.09-.16,.13-.34,.13-.54,0-.17-.03-.34-.09-.5-.06-.17-.15-.32-.25-.47-.11-.14-.24-.24-.39-.32-.15-.08-.3-.12-.47-.12h-.04s-.03,0-.04-.02c-.02,0-.04,0-.06-.01-.02-.01-.05-.03-.07-.04-.06-.01-.11-.02-.15-.03-.04-.01-.06-.01-.07-.01m8.92,8.5c-.07,.03-.13,.06-.19,.1-.06,.03-.12,.06-.18,.08-.05,.02-.09,.05-.14,.06-.04,.02-.08,.04-.1,.05-.12,.05-.24,.08-.34,.1-.11,.03-.21,.03-.31,.03l-.18-.02s-.06-.03-.09-.04c-.02-.02-.05-.03-.07-.04-.02,0-.04-.02-.07-.04-.02-.02-.04-.03-.05-.06-.08-.05-.13-.1-.16-.17-.04-.07-.05-.16-.05-.26,0-.04,0-.14,.01-.28,.01-.14,.04-.31,.07-.53,0-.05,0-.09,.01-.13,0-.05,0-.08,0-.12,.01-.05,.02-.09,.02-.13,0-.04,.01-.08,.01-.12,0-.02-.01-.05-.01-.08,0-.03-.01-.06-.02-.11,0-.03,0-.08-.02-.13-.01-.05-.02-.11-.02-.16-.02-.1-.03-.19-.03-.26v-.3c0-.05,.01-.12,.03-.2,0-.03,0-.06,.02-.08,.01-.02,.02-.05,.02-.06,.01-.01,.02-.02,.02-.04,0,0,.01-.02,.01-.03-.03-.08-.06-.15-.07-.21,0-.06-.01-.12-.01-.19,0-.03,0-.07,.01-.09,.01-.03,.03-.06,.04-.09,.01-.02,.02-.04,.02-.07,0-.03,.01-.06,.01-.09v-3.69s-.01-.05-.02-.07c-.01-.03-.02-.06-.02-.09-.01-.04-.02-.07-.04-.11,0-.04-.02-.08-.03-.12-.03-.08-.06-.14-.06-.19,0-.05,0-.09,0-.13v-2.6c0-.13,0-.26,.04-.42,.01-.15,.02-.28,.03-.37,.01-.1,.02-.16,.02-.2,0-.03,0-.07,0-.12,0-.04,0-.09,0-.15s0-.12-.01-.18c0-.06,0-.13,0-.21-.02-.13-.03-.26-.03-.37v-.67c0-.11,0-.22,.01-.33,0-.11,.02-.2,.04-.3,.01-.09,.04-.17,.09-.26,.05-.08,.11-.16,.18-.23h.57c.14,0,.27,.02,.4,.04,.14,.03,.27,.06,.42,.11,.03,.09,.06,.18,.09,.28,.03,.1,.05,.2,.06,.32,0,.12,0,.24,.02,.37,.01,.12,.02,.25,.02,.36,0,.05,0,.09,0,.14,0,.05,0,.09,0,.14v.35c-.01,.13-.02,.24-.02,.34v.7c0,.19,.01,.41,.03,.65,0,.24,.02,.44,.03,.58,0,.15,.02,.24,.02,.28,0,.08,0,.16,0,.24,0,.08-.02,.17-.03,.27,0,.1,0,.21-.01,.33-.01,.12-.02,.25-.02,.38-.03,.27-.05,.52-.06,.73,0,.21,0,.38,0,.51,0,.2,0,.46,0,.77,0,.31,.03,.67,.06,1.07,0,.21,0,.41,.02,.59,0,.18,.01,.36,.01,.51,.01,.15,.02,.3,.03,.43,0,.14,0,.25,0,.35,0,.05,0,.09,0,.14,0,.05,0,.11,0,.17,0,.07,0,.14,0,.22,0,.08-.01,.16-.01,.23-.02,.19-.03,.34-.03,.43v.17c0,.07,0,.15,0,.24,0,.09,.02,.2,.04,.34,0,.14,.02,.25,.03,.35,.01,.1,.02,.19,.02,.27l-.03,1.07Z"/><path class="cls-5" d="M42.71,39.61s0,.06,.02,.1c0,.03,.02,.07,.02,.1,0,.02,.02,.05,.03,.08,0,.02,.01,.05,.02,.08,0,.05,0,.11,.01,.16,.02,.05,.02,.11,.02,.16,0,.14-.02,.25-.05,.36-.03,.11-.08,.19-.15,.26-.03,0-.05,0-.09,.01-.04,.01-.08,.03-.13,.04-.03,0-.06,.02-.09,.02-.02,.01-.04,.01-.06,.01h-.06s-.19-.02-.53-.06h-.33c-.07,0-.14,0-.22,0-.08,0-.16-.01-.25-.02-.2-.01-.35-.02-.46-.03-.11,0-.17-.01-.17-.01-.02,0-.04,0-.06,.02-.02,.01-.03,.02-.04,.02-.02,0-.04,0-.06,.02-.02,.02-.03,.03-.03,.04-.07-.04-.12-.06-.17-.07-.05-.01-.07-.02-.08-.02-.03,.03-.07,.04-.11,.04-.03,0-.08,0-.14,0-.03,0-.09,0-.16,0-.07,0-.17-.02-.29-.04-.12-.02-.23-.04-.32-.05-.09,0-.16-.01-.23-.01-.03,0-.07,.01-.11,.03-.04,.02-.07,.05-.11,.08-.05,.04-.11,.07-.15,.08-.05,.03-.11,.04-.18,.04-.06,0-.12,0-.18,0-.07,0-.14-.02-.2-.04-.09,0-.16-.02-.22-.03-.05-.01-.09-.02-.12-.02-.03,0-.07,0-.1,.02-.03,.01-.07,.03-.12,.03-.02,.01-.04,.02-.06,.02-.02,.01-.04,.01-.06,.01h-.04s-.04-.02-.1-.05c-.03-.03-.06-.06-.09-.07-.03,0-.06-.01-.09-.01-.02,0-.05,0-.07,.01-.03,.01-.08,.04-.13,.07-.06,.03-.11,.06-.15,.07-.05,0-.08,.02-.11,.02-.22-.03-.43-.05-.65-.07-.22-.02-.43-.05-.63-.07l-1.19,.04c-.19,0-.36,0-.51-.01-.15,0-.28,0-.41-.03-.13,0-.24-.03-.31-.07-.07-.03-.12-.08-.14-.13l-.16-.35c0-.07,.01-.13,.03-.2,.02-.07,.05-.14,.08-.24,.01-.03,.02-.06,.04-.11,0-.04,.01-.07,.01-.09,0-.03,.02-.06,.03-.08,.01-.02,.02-.05,.03-.06l.28,.05h.18s.05,0,.08-.01c.03,0,.06,0,.09,0,.17-.02,.32-.04,.42-.05,.11,0,.18-.01,.21-.01h.16s.07,0,.09,0c.03,0,.05-.01,.08-.01,.19-.03,.34-.04,.44-.06,.1,0,.16-.01,.2-.01,.04,0,.1,0,.15,.04,.05,.02,.11,.05,.17,.08l.42,.05s.1,0,.19-.01c.1,0,.23-.02,.4-.04,.13-.03,.26-.04,.37-.05,.12-.01,.21-.02,.28-.02,.02,0,.07,0,.12,.02,.06,.01,.13,.03,.24,.07,.03,0,.07,.02,.1,.02,.03,0,.07,.01,.12,.01l.03-.08s-.06-.06-.11-.08c-.05-.02-.11-.03-.18-.03-.04,0-.06-.01-.09-.02-.03-.02-.05-.04-.09-.08-.05-.05-.09-.08-.12-.12-.04-.04-.07-.07-.1-.1-.03-.03-.06-.05-.08-.06-.02-.02-.03-.04-.04-.06-.06-.07-.1-.14-.12-.22-.03-.09-.03-.18-.03-.29,0-.24,.02-.44,.07-.62,.05-.18,.14-.32,.28-.42,.12-.1,.26-.19,.45-.25,.18-.06,.39-.09,.63-.09,.19,0,.36,.02,.5,.08,.15,.06,.28,.12,.4,.22,.1,.1,.18,.22,.24,.36,.05,.14,.08,.29,.08,.46,0,.14-.02,.27-.08,.4-.05,.13-.11,.25-.19,.35-.1,.11-.17,.2-.23,.28-.05,.07-.09,.12-.11,.16,0,0,.03,.02,.09,.03,.06,0,.14,0,.24,.02,.12,0,.25,.02,.41,.03,.16,0,.34,.01,.55,.01s.38,0,.54,0c.16,0,.31,0,.45,0h.5s.04,0,.07,0c.03,0,.07-.02,.12-.04,.04-.01,.07-.02,.12-.03,.05-.01,.08-.02,.12-.02,.07,0,.13,0,.19,0,.06,0,.13,.02,.19,.03,.06,0,.15,.01,.29,.04,.14,.02,.32,.06,.53,.11Zm-1.04-9.07c0,.15-.04,.26-.12,.35-.08,.09-.19,.15-.33,.19-.09,.03-.2,.05-.33,.06-.13,.01-.28,.01-.46,.01-.07-.02-.13-.04-.18-.06-.06-.02-.1-.02-.14-.02-.04,.03-.11,.06-.19,.07-.08,.02-.18,.03-.29,.03-.12,.02-.24,.04-.35,.04h-.97c-.07,0-.12,0-.18,.02-.05,0-.09,.01-.11,.01,.02,.02,.05,.02,.08,.03,.03,0,.05,0,.07,0h.12s.07,.03,.09,.04c.03,.02,.06,.04,.09,.06l.37,.07c.13,0,.28,.06,.44,.19,.16,.12,.33,.32,.51,.56,.16,.26,.3,.49,.39,.69,.09,.2,.15,.37,.15,.5,0,.04,0,.07-.01,.09,0,.03,0,.06,0,.09v.15c-.02,.06-.02,.11-.03,.16,0,.05-.01,.09-.01,.13v.11s.01,.08,.04,.12c0,.07,.02,.12,.03,.16,.01,.04,.02,.06,.02,.08l.02,.08s0,.05-.02,.08c0,.03-.02,.08-.03,.12-.03,.06-.04,.11-.06,.17-.02,.05-.04,.12-.06,.18-.04,.06-.06,.14-.08,.2-.03,.07-.05,.14-.06,.2-.04,.06-.07,.12-.09,.18-.02,.06-.04,.12-.05,.16-.2,.24-.41,.44-.61,.6-.2,.16-.39,.29-.57,.38-.2,.1-.42,.17-.65,.22-.23,.05-.49,.07-.77,.07-.38,0-.71-.03-1-.11-.29-.07-.53-.19-.73-.35-.15-.1-.31-.26-.5-.49-.18-.23-.37-.52-.58-.88-.03-.06-.06-.12-.09-.18-.03-.06-.05-.13-.05-.21-.02-.07-.04-.14-.04-.21v-.26c0-.21,.01-.4,.03-.61,.02-.2,.05-.4,.11-.62,.04-.2,.11-.38,.19-.52,.08-.16,.17-.27,.28-.36,.01,0,.05-.04,.13-.12,.07-.07,.17-.2,.31-.36,.08-.1,.16-.18,.25-.23,.09-.05,.17-.08,.25-.08,.02-.03,.05-.06,.08-.09,.03-.03,.08-.05,.14-.07,0,0,.02,0,.05-.02,.02-.01,.04-.02,.07-.03,.02-.01,.04-.03,.06-.04,.02,0,.04-.02,.06-.03h-.84c-.09,0-.17-.01-.24-.03-.14-.01-.27-.03-.38-.04-.11-.02-.2-.03-.28-.04-.07,0-.13,0-.17-.02-.05-.01-.07-.02-.09-.02-.03,0-.07,0-.11,0-.04,.01-.08,.01-.11,.01-.04,0-.09,0-.15,0-.05,0-.1,0-.16,0-.14,.02-.24,.03-.31,.03h-.16s-.07-.01-.12-.03c-.05-.02-.08-.06-.09-.12-.03-.04-.06-.1-.08-.18-.02-.07-.03-.16-.03-.28,0-.17,0-.31,.03-.43,.01-.12,.04-.23,.08-.32,.03-.08,.1-.14,.19-.18,.09-.04,.23-.07,.39-.07l2.51,.2c.03-.06,.04-.11,.08-.15,.03-.04,.05-.09,.06-.14,.02-.03,.04-.06,.05-.08,0-.02,.03-.04,.04-.05v-.15s0-.1,0-.16c0-.06,0-.13,0-.21-.01-.05-.01-.08-.01-.1v-.27c-.01-.1-.02-.18-.02-.26v-.21c0-.1,0-.19,.01-.26,0-.07,.02-.14,.04-.19,.05,0,.08-.04,.11-.09,.03-.05,.05-.12,.05-.21,.13-.02,.27-.04,.42-.07,.14-.02,.29-.03,.46-.03s.31,.02,.42,.06c.11,.04,.19,.09,.25,.16,.05,.06,.08,.16,.11,.29,.03,.13,.04,.29,.04,.48,0,.04,0,.08,0,.13,0,.04,0,.07,0,.09v.16c-.04,.22-.06,.37-.06,.49,0,.11,0,.18,0,.21v.11s0,.08,.03,.12c0,.03,0,.07,.02,.09,.02,.03,.02,.05,.03,.06,.09,.03,.19,.06,.3,.07,.11,.02,.21,.03,.31,.03,0,0,.02,0,.05,0,.03,0,.04-.02,.07-.03,.02,0,.04-.01,.06-.02,.02,0,.04-.01,.06-.03,.01,0,.03,0,.04,0,.02,0,.04,0,.07,0,0,0,.02,0,.04-.01,.02,0,.03,0,.06,0,.01,0,.02,0,.04,0,.02,0,.03,.02,.05,.03,.02,0,.04,0,.07,.02,.02,0,.05,.02,.08,.02,.04,.02,.09,.04,.13,.05,.04,0,.08,0,.11,0,.03,0,.08,0,.14,0,.06,0,.14-.03,.23-.05,.06-.01,.13-.02,.19-.03,.06,0,.12-.01,.17-.01,.02,0,.06,0,.12,.01,.07,.01,.14,.02,.24,.03,.08,.02,.15,.04,.22,.05,.06,0,.12,0,.17,0,.04,.05,.08,.11,.12,.17,.03,.06,.07,.13,.1,.23,.02,.09,.04,.17,.06,.25,.01,.08,.02,.16,.02,.24Zm-4.49,2.12s-.07,0-.12,.03c-.05,.01-.09,.03-.14,.06-.04,.02-.07,.04-.1,.06-.04,.02-.07,.03-.1,.04-.03,.02-.07,.05-.11,.07-.04,.02-.08,.05-.11,.07-.09,.03-.17,.09-.24,.17-.07,.08-.12,.17-.17,.27-.03,.06-.06,.15-.1,.26-.04,.11-.07,.22-.1,.33,.02,.24,.06,.46,.11,.64,.06,.19,.14,.35,.24,.48,.13,.18,.27,.31,.44,.4,.16,.08,.37,.12,.6,.12,.17,0,.33-.03,.5-.1,.17-.07,.33-.18,.5-.33,.17-.15,.3-.32,.38-.48,.09-.16,.13-.34,.13-.54,0-.17-.03-.34-.09-.5-.06-.17-.15-.32-.25-.47-.11-.14-.24-.24-.39-.32-.15-.08-.3-.12-.47-.12h-.04s-.03,0-.04-.02c-.02,0-.04,0-.06-.01-.02-.01-.05-.03-.07-.04-.06-.01-.11-.02-.15-.03-.04-.01-.06-.01-.07-.01Zm8.92,8.5c-.07,.03-.13,.06-.19,.1-.06,.03-.12,.06-.18,.08-.05,.02-.09,.05-.14,.06-.04,.02-.08,.04-.1,.05-.12,.05-.24,.08-.34,.1-.11,.03-.21,.03-.31,.03l-.18-.02s-.06-.03-.09-.04c-.02-.02-.05-.03-.07-.04-.02,0-.04-.02-.07-.04-.02-.02-.04-.03-.05-.06-.08-.05-.13-.1-.16-.17-.04-.07-.05-.16-.05-.26,0-.04,0-.14,.01-.28,.01-.14,.04-.31,.07-.53,0-.05,0-.09,.01-.13,0-.05,0-.08,0-.12,.01-.05,.02-.09,.02-.13,0-.04,.01-.08,.01-.12,0-.02-.01-.05-.01-.08,0-.03-.01-.06-.02-.11,0-.03,0-.08-.02-.13-.01-.05-.02-.11-.02-.16-.02-.1-.03-.19-.03-.26v-.3c0-.05,.01-.12,.03-.2,0-.03,0-.06,.02-.08,.01-.02,.02-.05,.02-.06,.01-.01,.02-.02,.02-.04,0,0,.01-.02,.01-.03-.03-.08-.06-.15-.07-.21,0-.06-.01-.12-.01-.19,0-.03,0-.07,.01-.09,.01-.03,.03-.06,.04-.09,.01-.02,.02-.04,.02-.07,0-.03,.01-.06,.01-.09v-3.69s-.01-.05-.02-.07c-.01-.03-.02-.06-.02-.09-.01-.04-.02-.07-.04-.11,0-.04-.02-.08-.03-.12-.03-.08-.06-.14-.06-.19,0-.05,0-.09,0-.13v-2.6c0-.13,0-.26,.04-.42,.01-.15,.02-.28,.03-.37,.01-.1,.02-.16,.02-.2,0-.03,0-.07,0-.12,0-.04,0-.09,0-.15s0-.12-.01-.18c0-.06,0-.13,0-.21-.02-.13-.03-.26-.03-.37v-.67c0-.11,0-.22,.01-.33,0-.11,.02-.2,.04-.3,.01-.09,.04-.17,.09-.26,.05-.08,.11-.16,.18-.23h.57c.14,0,.27,.02,.4,.04,.14,.03,.27,.06,.42,.11,.03,.09,.06,.18,.09,.28,.03,.1,.05,.2,.06,.32,0,.12,0,.24,.02,.37,.01,.12,.02,.25,.02,.36,0,.05,0,.09,0,.14,0,.05,0,.09,0,.14v.35c-.01,.13-.02,.24-.02,.34v.7c0,.19,.01,.41,.03,.65,0,.24,.02,.44,.03,.58,0,.15,.02,.24,.02,.28,0,.08,0,.16,0,.24,0,.08-.02,.17-.03,.27,0,.1,0,.21-.01,.33-.01,.12-.02,.25-.02,.38-.03,.27-.05,.52-.06,.73,0,.21,0,.38,0,.51,0,.2,0,.46,0,.77,0,.31,.03,.67,.06,1.07,0,.21,0,.41,.02,.59,0,.18,.01,.36,.01,.51,.01,.15,.02,.3,.03,.43,0,.14,0,.25,0,.35,0,.05,0,.09,0,.14,0,.05,0,.11,0,.17,0,.07,0,.14,0,.22,0,.08-.01,.16-.01,.23-.02,.19-.03,.34-.03,.43v.17c0,.07,0,.15,0,.24,0,.09,.02,.2,.04,.34,0,.14,.02,.25,.03,.35,.01,.1,.02,.19,.02,.27l-.03,1.07Z"/></g></g></svg>