<?xml version="1.0" encoding="UTF-8"?><svg id="_레이어_2" xmlns="http://www.w3.org/2000/svg" viewBox="0 0 164.73 24.15"><defs><style>.cls-1,.cls-2{fill:#fff;}.cls-2{fill-rule:evenodd;}.cls-3{fill:none;}</style></defs><g id="_레이어_1-2"><path class="cls-2" d="M15.69,9.99c-2.23-2.1-5.46,.87-3.6,3.64,.95,1.42,3.4,2.34,6.92,2.15,.5-.03,.67-.14,.17-.36-3.08-1.4-1.85-3.88-3.49-5.43"/><path class="cls-2" d="M8.5,16.46c.23-.44,.29-.54-.3-.27-3.34,1.55-3.99-.95-6.21-.62-1.23,.19-2.18,1.37-1.96,2.67,.26,1.55,2.05,2.14,3.48,1.99,2.95-.3,4.61-3.05,4.99-3.77"/><path class="cls-2" d="M5.95,15.4c.12,.1,.27,.29-.16,.23C.45,14.83-.51,11.67,.87,10.12c.74-.82,2.31-.93,3.06-.1,1.43,1.57-.11,3.59,2.01,5.39"/><path class="cls-2" d="M25.19,2.76c.52,.02,.65,.12,.13,.33-1.25,.5-2.52,1.43-2.57,3.55-.07,3.04-4.48,2.24-3.98-.94,.56-3.6,5.82-2.96,6.43-2.94"/><path class="cls-2" d="M9.62,18.25c.9,2.71,4.71,1.76,4.39-.84-.27-2.24-2.95-1.52-2.95-3.99,0-.3-.03-.55-.33-.09-.84,1.28-1.57,3.57-1.12,4.91"/><path class="cls-2" d="M26.01,16.78c-2.34,1.66-3.2-.35-4.88-.44-1.94-.11-2.5,3.04,0,3.62,1.16,.27,4.01-.28,5.19-3.13,.06-.15,0-.32-.3-.06"/><path class="cls-2" d="M25.33,14.7c.52-2.66-1.68-5.14-1.89-5.41-.05-.07-.5-.61-.31,.18,.58,2.38-.65,3.05-1.02,4.75-.54,2.44,2.77,2.79,3.22,.47"/><path class="cls-1" d="M11.78,9.3c-2.8,.28-4.43,1.07-5.31,1.75-1.3,1.01-1.14,2.61-.37,3.39,.81,.82,2.38,1.07,3.39-.17,1.22-1.51,.03-3.34,2.42-4.73,.35-.2,.13-.27-.13-.24"/><path class="cls-2" d="M29.92,9.64c-.53,.23-.94,.65-1.24,1.13-.31,.51-.43,1.11-.75,1.62-.27,.44-.62,.86-1.03,1.17-.23,.17-.35,.41,.08,.32,.35-.07,.84-.14,1.44-.08,.6,.06,1.4,.35,1.76,.44,.75,.25,1.61,.23,2.18-.36,.92-.97,.8-2.76-.1-3.71-.59-.62-1.54-.88-2.34-.54"/><path class="cls-2" d="M32.09,15.16c-1.88-.29-2.81,1.14-5.57-.77-.25-.17-.45-.31-.27,.25,.3,.91,1.62,4.57,4.17,5.22,3.75,.95,4.74-4.13,1.67-4.7"/><path class="cls-2" d="M14.31,1.64c-.41,2.08,1.2,3.06,.81,6.12-.03,.24,.19,.24,.25,.1,1.22-2.8,3.04-2.7,3.73-4.86C20.13-.23,14.85-1.11,14.31,1.64"/><path class="cls-2" d="M6.35,9.66c2.48,.19,2.61-1.63,7.02-1.39,.36,.02,.31-.22,.08-.28-3.95-1.19-4.62-3.72-6.68-3.8-3.36-.13-3.83,5.21-.42,5.47"/><path class="cls-2" d="M9.35,4.5c1.52,1.95,2.7,.66,4.45,2.55,.25,.28,.45,.14,.25-.18-1.21-1.97,.15-3.75-.87-5.05-1.92-2.45-5.61,.39-3.82,2.68"/><path class="cls-2" d="M23.57,6.53c0,2.07,2.28,3.03,2.42,6.9,0,.26,.24,.26,.29,.01,.75-3.85,2.86-4.59,3.05-6.81,.28-3.42-5.76-4.04-5.76-.1"/><path class="cls-2" d="M21.54,13.32c.92-.8,1.24-2.22,.4-3.25-1.54-1.76-3.19,0-4.76-2.95-.26-.48-.43-.38-.33,.14,.32,1.79-.27,3.58,.78,5.17,1.04,1.58,2.9,1.75,3.9,.88"/><path class="cls-2" d="M16.79,16.66c-1.12,0-2.03,.91-2.03,2.03v5.46h4.06v-5.46c0-1.12-.91-2.03-2.03-2.03"/><path class="cls-1" d="M46.03,10.28c.82,.97,3.09,1.71,5.12,1.71h.37v-1.56h-.37c-1.65,0-3.33-.79-3.84-1.8h4.02v-1.57h-4.13c-.13-.85-.42-1.12-.42-1.12h-2.22s.25,.27,.37,1.12h-4.22v1.57h4.02c-.5,1.01-2.19,1.8-3.83,1.8h-.36v1.56h.36c2.03,0,4.3-.74,5.12-1.71"/><path class="cls-1" d="M52.86,14.05v-1.57h-13.66v1.57h5.76v.6c-2.01,.35-3.29,1.68-3.29,3.27,0,1.86,1.74,3.36,4.36,3.36s4.36-1.5,4.36-3.36c0-1.59-1.28-2.92-3.29-3.27v-.6h5.76Zm-4.58,3.87c0,.99-1.01,1.78-2.24,1.78s-2.24-.8-2.24-1.78,1.01-1.78,2.24-1.78,2.24,.8,2.24,1.78"/><polygon class="cls-1" points="88.36 18.52 88.36 14.99 86.23 14.99 86.23 18.52 81.63 18.52 81.63 20.08 92.99 20.08 92.99 18.52 88.36 18.52"/><path class="cls-1" d="M82.44,12.27c0,1.13,.92,2.05,2.05,2.05h7.47s0-1.56,0-1.56h-6.78c-.33,0-.6-.27-.6-.6v-1.86c0-1.34-.29-1.89-.39-2.05h7.77v-1.57h-9.95s.43,.47,.43,2.1v3.49Z"/><path class="cls-1" d="M78.86,9.29v-2.44c0-.33-.27-.6-.6-.6h-1.53v5.27h0c-.3,.14-.73,.34-1.93,.34h-3.82c-.33,0-.6-.27-.6-.6v-2.43c0-1.64-.49-2.1-.49-2.1h-2.08s.43,.46,.43,2.1v2.54c0,1.13,.92,2.05,2.04,2.05h3.73c1.13,0,1.99-.1,2.71-.39h0s0,.87,0,.87h2.13v-3.05h2.11v-1.57h-2.11Z"/><path class="cls-1" d="M70.38,18.83c0,1.13,.92,2.04,2.05,2.04h6.44v-6.4h-8.48v4.36Zm2.13-2.8h4.22v3.28h-3.62c-.33,0-.6-.27-.6-.6v-2.68Z"/><path class="cls-1" d="M61.88,13.77c-2.39,0-4.32,1.68-4.32,3.76s1.94,3.76,4.32,3.76,4.32-1.68,4.32-3.76-1.94-3.76-4.32-3.76m0,5.93c-1.22,0-2.21-.98-2.21-2.19s.99-2.19,2.21-2.19,2.21,.98,2.21,2.19-.99,2.19-2.21,2.19"/><path class="cls-1" d="M65.61,6.26h-1.53v3.36h-2.23v1.56h2.23v2.71h2.13V6.86c0-.33-.27-.6-.6-.6"/><path class="cls-1" d="M58.17,11.53c.63,.98,2.48,1.95,3.96,1.95h.14v-1.62c-1.28-.15-2.89-.96-3.03-2.92h2.82v-1.57h-2.82c-.11-1.09-.45-1.42-.45-1.42h-2.11s.31,.33,.4,1.42h-2.78v1.57h2.82c-.14,1.96-1.75,2.76-3.03,2.92v1.62h.14c1.48,0,3.33-.98,3.96-1.95"/><path class="cls-1" d="M107.16,13.09c-.35,.15-.74,.24-1.16,.28-.51,.06-1.01,.1-1.51,.1h-3.68c-.28,0-.54-.05-.79-.16-.25-.11-.47-.25-.65-.43-.18-.18-.32-.4-.43-.65-.11-.25-.16-.51-.16-.79v-2.51c0-.4-.02-.74-.07-1.01-.05-.27-.1-.49-.15-.64-.06-.19-.13-.34-.21-.43h2.06c.08,.1,.16,.24,.24,.43,.05,.16,.11,.37,.16,.64,.05,.27,.08,.61,.08,1.01v2.39c0,.17,.06,.31,.18,.42,.12,.11,.25,.17,.41,.17h3.78c.54,0,.97-.06,1.3-.14,.32-.09,.53-.15,.61-.19V6.38h1.51c.17,0,.31,.06,.42,.17,.11,.12,.17,.26,.17,.43v2.41h2.09v1.54h-2.09v3.02h-2.1v-.86Zm-6.49,5.74v-4.32h8.59v6.33h-6.57c-.29,0-.55-.05-.8-.16-.24-.11-.46-.25-.64-.43-.18-.18-.32-.39-.43-.64-.11-.24-.16-.5-.16-.78m2.1-2.77v2.65c0,.17,.06,.31,.18,.43,.12,.11,.26,.18,.41,.18h3.79v-3.25h-4.38Z"/><path class="cls-1" d="M118.97,20.86h-2.1v-4.83h-5.5v-1.56h13.02v1.56h-5.42v4.83Zm1.43-14.49h2.12v6.68h-7.47c-.28,0-.53-.05-.78-.16-.25-.11-.46-.25-.64-.43-.18-.18-.32-.4-.43-.65-.11-.25-.16-.51-.16-.79v-2.56c0-.41-.02-.74-.07-1.01-.04-.27-.1-.48-.15-.65-.07-.19-.13-.33-.21-.43h2.06c.08,.09,.16,.21,.22,.38,.05,.15,.1,.34,.15,.57,.05,.23,.08,.53,.1,.89h5.26v-1.85Zm-4.67,5.13h4.67v-1.74h-5.26v1.15c0,.16,.06,.3,.17,.42,.11,.12,.25,.17,.42,.17"/><polygon class="cls-1" points="160.06 18.33 164.73 18.33 164.73 19.88 153.16 19.88 153.16 18.33 157.96 18.33 157.96 15.16 160.06 15.16 160.06 18.33"/><path class="cls-1" d="M160.06,8.96v.65c.06,.56,.22,1.03,.49,1.42,.26,.38,.56,.69,.9,.93,.33,.24,.66,.43,.98,.55,.32,.12,.58,.2,.77,.23,.08,.02,.18,.03,.29,.05,.11,.01,.21,.03,.31,.05,.12,.02,.22,.04,.32,.05v1.56c-.18-.01-.35-.02-.51-.05-.14-.02-.28-.04-.41-.06-.14-.02-.25-.03-.32-.06-.3-.06-.62-.15-.97-.27-.34-.12-.69-.26-1.03-.44-.35-.18-.69-.4-1.02-.65-.33-.25-.63-.54-.89-.88-.27,.34-.56,.63-.89,.88-.33,.25-.67,.47-1.02,.65-.35,.18-.7,.33-1.04,.44-.34,.12-.66,.21-.96,.27-.09,.02-.19,.04-.33,.06-.13,.02-.27,.04-.41,.06-.16,.02-.32,.04-.49,.05v-1.56c.11,0,.21-.03,.32-.05,.08-.02,.18-.04,.29-.05,.11-.01,.21-.03,.3-.05,.14-.02,.32-.07,.53-.14,.21-.07,.44-.17,.68-.3,.23-.13,.47-.29,.71-.48,.24-.19,.45-.42,.65-.7,.19-.27,.34-.58,.45-.94,.1-.36,.15-.77,.14-1.23,0-.41-.02-.74-.07-1.01-.05-.27-.1-.48-.15-.64-.06-.19-.13-.33-.21-.43h2.09c.08,.1,.16,.24,.24,.43,.07,.16,.12,.37,.18,.64,.05,.27,.08,.6,.08,1.01"/><path class="cls-1" d="M147.61,13.31l-.4-.07c-.28-.06-.57-.15-.88-.27-.31-.12-.62-.27-.93-.45-.32-.18-.63-.4-.93-.65-.3-.25-.57-.54-.81-.87-.24,.34-.51,.64-.81,.9-.29,.26-.6,.48-.92,.66-.32,.19-.64,.35-.95,.47-.31,.12-.6,.22-.87,.28l-.32,.06v-1.56l.11-.03c.25-.1,.53-.23,.84-.39,.3-.15,.59-.36,.85-.63,.26-.27,.49-.6,.68-.99,.19-.4,.3-.9,.32-1.49h-2.57v-1.55h7.22v1.55h-2.55c.03,.61,.14,1.1,.33,1.49,.19,.39,.41,.71,.68,.96,.27,.25,.55,.45,.85,.6,.3,.14,.58,.27,.84,.37,.02,.01,.05,.01,.1,.01h.1v1.58Zm-1.15,.32c.58,0,1.14,.1,1.66,.3,.52,.19,.98,.46,1.37,.79,.38,.34,.69,.74,.91,1.18,.22,.45,.34,.92,.34,1.43s-.11,.99-.34,1.45c-.22,.45-.53,.84-.91,1.19-.39,.33-.85,.59-1.37,.79-.52,.2-1.07,.3-1.66,.3s-1.15-.1-1.67-.3c-.52-.19-.96-.46-1.35-.79-.39-.34-.7-.74-.93-1.19-.22-.45-.33-.94-.33-1.45s.11-.99,.33-1.43c.22-.44,.53-.84,.93-1.18,.38-.33,.83-.59,1.35-.79,.51-.2,1.07-.3,1.67-.3m0,5.87c.3,0,.58-.06,.84-.17,.27-.11,.5-.26,.7-.45,.2-.2,.36-.44,.47-.7,.11-.26,.17-.55,.17-.85s-.06-.58-.17-.84c-.11-.26-.27-.5-.47-.7-.2-.19-.44-.34-.7-.45-.27-.11-.55-.17-.84-.17s-.59,.06-.85,.17c-.26,.11-.49,.26-.69,.45-.2,.2-.36,.44-.47,.7-.11,.27-.17,.55-.17,.84s.06,.58,.17,.85c.11,.26,.27,.5,.47,.7,.2,.19,.43,.34,.69,.45,.26,.11,.54,.17,.85,.17m2.15-5.66V6.18h1.51c.16,0,.3,.06,.41,.17,.12,.11,.18,.26,.18,.43v2.23h2.09v1.55h-2.09v3.27h-2.1Z"/><path class="cls-1" d="M127.46,19.05v-1.93h6.86v-.78h-6.86v-1.48h3.44v-.92h-5.48v-1.47h13.02v1.47h-5.42v.92h3.41v3.71h-6.85v.45c0,.17,.06,.3,.17,.4,.11,.1,.25,.14,.42,.14h6.44v1.44h-7.13c-.28,0-.54-.05-.79-.15-.25-.1-.47-.24-.65-.4-.18-.18-.33-.39-.43-.62-.11-.23-.16-.49-.16-.77m8.67-8.81c.08,.02,.2,.03,.33,.04,.14,0,.27,.01,.4,.02,.15,.01,.3,.02,.45,.03v1.56c-.24-.01-.45-.02-.64-.03-.17-.01-.34-.02-.49-.03-.16-.01-.28-.02-.35-.05-.22-.04-.49-.09-.81-.14s-.66-.13-1.02-.24c-.36-.11-.72-.26-1.08-.45-.35-.19-.68-.45-.98-.76-.29,.32-.61,.57-.97,.76-.36,.19-.72,.33-1.08,.44-.36,.1-.71,.19-1.04,.25-.33,.06-.62,.11-.85,.15-.07,.02-.19,.04-.35,.05-.16,.01-.32,.02-.49,.03-.19,0-.4,.02-.64,.03v-1.56c.15-.01,.3-.02,.45-.03,.12-.01,.24-.02,.38-.02,.14,0,.25-.02,.35-.04,.11-.01,.29-.03,.57-.06s.56-.09,.87-.17c.31-.09,.61-.22,.9-.4,.29-.18,.51-.43,.66-.75h-3.95v-1.55h4.11c-.03-.2-.07-.37-.1-.51-.04-.14-.08-.25-.12-.33-.04-.11-.09-.19-.13-.24h2.2c.05,.05,.1,.13,.14,.24,.04,.08,.08,.19,.13,.33,.04,.14,.08,.31,.11,.51h3.99v1.55h-3.86c.17,.33,.4,.59,.7,.77,.3,.18,.6,.31,.91,.4,.3,.1,.57,.15,.82,.18,.25,.02,.42,.04,.5,.05"/><rect class="cls-3" x="0" y="0" width="164.73" height="24.15"/></g></svg>