<?xml version="1.0" encoding="UTF-8"?><svg id="_레이어_2" xmlns="http://www.w3.org/2000/svg" xmlns:xlink="http://www.w3.org/1999/xlink" viewBox="0 0 456.44 223.4"><defs><style>.cls-1{fill:#fff;fill-rule:evenodd;}.cls-2{clip-path:url(#clippath);}.cls-3{fill:none;}</style><clipPath id="clippath"><rect class="cls-3" width="456.44" height="223.4"/></clipPath></defs><g id="_레이어_1-2"><g class="cls-2"><path class="cls-1" d="M81.74,189.6c.49-.39,.71-.56,1.16-.92,.06,.91,.3,1.69,.1,2.33-.24,.77-.14,1.3,.33,1.91,.78,1,.89,2.08,.36,3.25-.26,.58-.39,1.22-.61,1.82-.09,.26-.24,.69-.4,.71-1.14,.14-1.19,.96-1.38,1.76-.24,1.03-.67,1.33-1.75,1.37-.71,.02-1.42,0-2.17,0-.38,.7-.79,1.45-1.28,2.37-1.09-.98-2.66-.84-3.42-2.14-1-1.71-2.06-3.41-1.88-5.45,.06-.67,.5-1.38,.94-1.94,.98-1.26,1.03-1.23,.27-2.2,.35-.95,.83-1.75,.92-2.6,.23-2.06,.36-4.14-.21-6.19-.04-.15-.11-.35-.05-.48,.99-1.99,.61-4.19,1.01-6.26,.03-.17,0-.36,.05-.52,.78-2.32,.61-4.74,.78-7.13,.16-2.36,.2-4.73,.27-7.1,0-.27-.1-.54-.2-1.06-1.7,.35-3.36,.56-4.92,1.04-3.55,1.1-7.08,2.28-10.58,3.53-1.12,.4-2.16,1.02-2.2,2.46-.02,.55-.44,1.07-.55,1.63-.15,.72-.3,1.48-.25,2.2,.21,2.87,.7,5.74,.7,8.61,0,1.96-.52,3.96-1.82,5.67-.64-.18-1.15-.33-1.44-.41-1.42,1.22-2.74,2.34-4.16,3.56-.48-.52-.78-.86-1.09-1.19-.32-.34-.59-.91-.97-.99-1.33-.3-1.56-1.33-1.87-2.31-.56-1.76-1.1-3.54-1.6-5.32-.12-.42-.16-.94-.02-1.35,.99-2.9,.96-5.9,1.14-8.9,.14-2.35,.41-4.75,1.07-7,1.06-3.63,1.78-7.32,2.47-11.02,.4-2.17,.91-4.31,1.33-6.47,.13-.68,.24-1.38,.21-2.07-.04-1.02-.93-1.45-1.76-.83-.44,.33-.86,.88-.95,1.39-.53,3.07-1.8,5.9-3.22,8.63-2.1,4.03-4.51,7.92-6.79,11.86-.64,1.11-1.28,2.23-1.94,3.33-1.14,1.9-2.31,3.79-3.46,5.68-.12,.2-.3,.39-.34,.61-.61,3.08-2.93,5.1-4.92,7.33-.85,.95-1.53,2.06-2.45,2.93-1.11,1.04-2.33,2.02-3.64,2.81-2.25,1.35-4.58,2.58-6.92,3.77-1.77,.9-3.58,.92-5.34-.11-.77-.45-1.73-.73-2.3-1.34-.74-.78-1.27-1.78-1.71-2.77-.45-.99-.77-2.06-.97-3.13-.18-.95-.34-1.99-.12-2.91,.55-2.36,1.31-4.68,1.99-7.02,.11-.38,.32-.75,.37-1.14,.33-2.45,.62-4.89,.93-7.34,.01-.11,.1-.25,.06-.34-.42-.99-1.15-1.96-1.22-2.98-.09-1.2-.54-1.89-1.51-2.54-1.2-.8-1.85-2.05-2.61-3.24-1.23-1.93-1.43-3.95-.9-5.94,.47-1.75,.67-3.66,1.97-5.15,.26-.3,.53-.73,.51-1.08-.05-.87,.32-1.43,1.05-1.86,.14-.08,.3-.25,.33-.4,.3-1.25,1.34-1.78,2.37-2.4,.81-.49,1.44-.75,2.48-.54,.83,.17,1.92-.18,2.7-.61,1.33-.73,2.72-1,4.14-.78,1.09,.17,2.01-.03,2.99-.36,1.24-.42,2.52-.75,3.8-1.07,1.7-.43,3.33,.1,4.98,.39,1.3,.23,2.59,.47,3.89,.67,2.15,.34,3.77,1.4,4.89,3.19,.21,.34,.48,.66,.64,1.03,.41,.96,.86,1.94-.05,2.89-.16,.17-.35,.36-.4,.57-.53,2.02-2.38,3.25-3.27,5.07-.29,.59-1.16,.94-1.81,1.33-.6,.36-1.41,.49-1.88,.95-.98,.97-2.07,1.04-3.32,.79-1.2-.24-2.17,.24-3.17,.86,.66,1.53,.82,2.87,.23,4.42-.35,.94-.47,1.95-1.16,2.78-.11,.13-.21,.33-.19,.48,.25,2.31-1.53,3.56-2.78,5.13-.67,.84-1.1,1.9-1.47,2.92-.51,1.41-.92,2.86-1.24,4.32-.24,1.1-.45,2.24,.1,3.61,1.29-.48,2.47-.86,3.6-1.35,5.29-2.29,9.38-6.04,13.29-10.02,5.07-5.15,8.38-11.3,11.08-17.79,.56-1.34,1.15-2.68,1.64-4.05,.45-1.24,.72-2.54,1.2-3.77,.5-1.28,1-2.62,1.81-3.73,.62-.85,1.67-1.45,2.62-2.01,1.23-.71,2.53-1.31,3.84-1.87,.64-.27,1.37-.35,2.06-.49,.46-.09,1-.03,1.39-.24,1.55-.83,2.72,.18,3.8,1.12,.47,.41,.78,1.01,1.1,1.57,.47,.81,.85,1.61,.53,2.63-.25,.8-.04,1.76-.34,2.54-.38,1-.88,2.12-1.68,2.79-1.35,1.13-2.21,2.51-2.67,4.04-.75,2.49-1.28,5.06-1.78,7.61-.26,1.36,.37,1.72,1.79,1.4,2.58-.58,4.94-1.71,7.38-2.64,2.03-.77,3.17-2.49,4.31-4.1,1.42-2.01,2.6-4.17,3.89-6.26,.89-1.44,1.8-2.8,1.82-4.62,.01-1.36,1-2.41,2.34-3,.8-.35,1.66-.59,2.47-.93,.38-.16,.79-.36,1.05-.65,.74-.84,1.77-1.13,2.72-1.61,1.88-.95,3.55-.48,5.07,.49,.72,.46,1.17,1.43,1.53,2.26,.17,.39-.1,1-.3,1.47-.32,.75-.71,1.47-1.13,2.18-1.26,2.14-2.04,4.41-2.5,6.84-.62,3.3-1.48,6.56-2.17,9.84-.37,1.75-.75,3.49-1.43,5.16,.56,1.15-1.14,2.19-.18,3.35-.85,.81-.17,1.92-.68,2.91-.64,1.25-.73,2.78-.9,4.21-.34,2.86-.59,5.72-.83,8.59-.28,3.34-.51,6.68-.74,10.01-.02,.26,.05,.53,.11,1.06"/><path class="cls-1" d="M106.69,70.32c1.04-.33,1.81-.49,2.48-.82,.76-.37,1.32-1.12,2.37-.91,.22,.04,.59-.27,.79-.49,2.15-2.41,4.36-4.79,5.85-7.63,.73-1.4,1.4-2.82,.97-4.5-.17-.67,.07-1.45,.2-2.17,.3-1.63,.73-3.24,.95-4.88,.17-1.23,.1-2.49,.16-3.74,.01-.3,.09-.61,.17-.91,.39-1.41,.86-2.8,1.17-4.22,.48-2.24,.86-4.49,1.24-6.74,.11-.66,.06-1.33,.11-2,.09-1.12-.14-2.35,1.12-2.97,.09-.67,.18-1.25,.26-1.84,.09-.71,.22-1.42,.23-2.13,.04-1.58,1.74-3.43,3.71-3.75,1.35-.22,2.74-.18,4.12-.3,.35-.03,.73-.17,1.02-.36,2.35-1.55,4.85-1.68,7.49-.75,.47,.16,.93,.46,1.41,.49,1.36,.07,1.84,1.09,2.4,1.94,.43,.65,.6,1.46,.91,2.18,.74,1.71,0,3.2-.91,4.57-.95,1.44-2.1,2.76-3.2,4.11-.19,.23-.56,.33-.8,.53-.67,.55-1.39,1.07-1.48,2-.03,.26-.12,.52-.25,.75-1.61,2.74-2.18,5.81-3.04,8.77-.75,2.56-1.37,5.16-1.89,7.77-.38,1.89-.43,3.84-.74,5.75-.25,1.54-.66,3.07-.92,4.25-1.51,.77-2.72,1.38-4,2.04-.24-.18-.58-.43-.89-.67q-3.62,1.4-5.42-.77c-.8-.08-1.45,.22-2.09,.71-2.05,1.59-3.68,3.5-5.07,5.61-.47,.72-1.11,1.6-.55,2.31,.57,.72,1.62,.27,2.48,.07,2.92-.69,5.86-1.3,8.76-2.04,1.72-.43,3.39-1.04,5.08-1.58,1.79-.57,3.56-1.17,5.36-1.7,.45-.13,.97-.09,1.45-.03,1.58,.19,3.16,.35,4.71,.66,1.44,.3,2.47,1.33,3.17,2.42,.42,.65,.41,1.78,.13,2.54-.47,1.25-1.21,2.4-2.59,3.13-1.52,.8-2.93,1.81-4.36,2.76-.35,.23-.63,.58-.89,.91-1.6,2.08-3.22,4.14-4.75,6.26-.75,1.04-1.32,2.19-1.96,3.29-.99,1.69-2,3.37-2.95,5.08-.14,.25-.02,.63-.02,1.1-1.78,.52-3.63,1.09-5.49,1.61-1.4,.39-2.68,.9-3.93,1.67-1.23,.76-2.72,1.18-4.14,1.63-.95,.3-1.88-.37-1.78-1.3,.08-.75,.31-1.61,.8-2.16,1.37-1.5,2.87-2.86,4.85-3.75,1.39-.62,2.47-1.67,3.35-2.95,1.75-2.54,3.69-4.98,5.6-7.43,1.01-1.3,2.09-2.55,2.85-4.29-.65-.09-1.16-.24-1.65-.21-.6,.04-1.21,.21-1.79,.38-3.25,.95-6.52,1.85-9.73,2.91-1.71,.57-2.82,1.98-4.05,3.18-.11,.11-.13,.35-.25,.4-1.65,.71-1.73,2.34-2.23,3.62-.51,1.29-.55,2.74-.76,4.13-.15,.97-.12,1.88,.3,2.87,.32,.74,.02,1.75-.15,2.62-.28,1.48-.76,2.92-.1,4.44,.19,.44-.02,1.03-.04,1.55-.06,.99,.1,2.04-.21,2.95-.59,1.72-.23,3.36,.03,5.04,.09,.57,.11,1.14,.15,1.72,.04,.51-.07,.96-.66,1.13-.95,.26-1.36,.84-1.35,1.74,0,.18-.16,.37-.29,.65-1.02-.43-2.02-.49-3.06-.19-.88,.25-1.53-.27-2.01-.86-1.81-2.23-2.85-4.74-2.69-7.58,.16-2.82,.24-5.65,.58-8.45,.37-3.11,.98-6.19,1.52-9.29,.36-2.05,.74-4.11,1.15-6.15,.26-1.31,.62-2.6,.9-3.91,.25-1.16,.6-2.31-.03-3.5-.41-.77-.38-1.62,.15-2.4,.92-1.35,1.83-2.72,2.64-3.92"/><path class="cls-1" d="M404.83,167.32c1.59-.25,3.19-.45,4.76-.75,6.35-1.22,12.78-1.59,19.21-2.1,2.67-.22,5.33-.63,8-.9,2.21-.22,4.25,.16,5.66,2.11,.24,.34,.62,.77,.56,1.1-.37,2.26-.38,4.65-2.72,6.12-1.35,.85-2.65,1.92-3.67,3.15-3.29,3.93-7.08,7.33-10.98,10.61-1.39,1.17-2.67,2.48-4.39,4.09,1.19,.21,1.9,.42,2.61,.44,3.53,.15,7.06,.23,10.59,.36,2.26,.09,4.51,.26,6.77,.31,1.05,.03,2.11-.15,3.16-.2,1.28-.07,2.34-.35,2.68-1.85,.07-.31,.6-.52,.96-.81,.36,.24,.7,.39,.92,.64,.7,.82,1.51,.84,2.5,.61,1.75-.4,1.94-.17,2.73,1.44,.54,1.1,1.31,2.09,2.28,3.58-.1,1.87-2.17,2.56-3.84,3.37-1.49,.73-3.23,1.01-4.89,1.32-.63,.12-1.35-.27-2.03-.32-1.83-.14-3.66-.21-5.48-.34-.89-.06-1.76-.26-2.65-.29-1.82-.07-3.6-.05-5.45,.27-2.11,.37-4.36-.02-6.55-.03-5.87-.03-11.75-.02-17.62-.07-1.86-.02-3.44,.76-4.99,1.58-.85,.45-1.64,.7-2.58,.75-.97,.05-1.97,.19-2.89,.48-1.66,.51-2.22-.88-3.12-1.67-.78-.68-.84-1.6-.43-2.53,.23-.52,.47-1.06,.84-1.47,1.3-1.43,2.22-3.25,3.92-4.26,1.88-1.12,3.85-2.05,6.19-1.63,2.72,.5,5.28-.19,7.39-1.81,2.51-1.93,4.77-4.2,7.11-6.34,2.3-2.1,4.57-4.23,6.87-6.33,.26-.23,.62-.36,1.14-.65-1.31-.87-2.33-.61-3.23-.57-6.32,.27-12.5,1.35-18.55,3.3-2.24,.72-3.56,2.46-5.27,3.78-.72,.56-1.37,1.22-2.11,1.75-2.95,2.12-5.03,4.73-5.85,8.43-.75,3.4-1.49,6.75-1.34,10.26,.06,1.33-.22,2.68-.45,4-.2,1.13-.75,1.98-2.12,1.93-.4-.01-.83,.14-1.21,.32-2.85,1.34-4.79,.82-6.04-2.01-1.32-2.97-2.46-6.09-1.67-9.42,.37-1.55,1.36-2.94,1.91-4.47,1.53-4.27,3.32-8.43,5.52-12.4,.9-1.64,.58-3.43,.36-5.14-.34-2.72,.7-4.99,2.21-7.06,.78-1.07,2.07-1.47,3.39-1.52,1.62-.06,3.26,.07,4.86-.11,.93-.1,1.98-.45,2.68-1.04,5.6-4.63,10.59-9.82,14.27-16.16,1.09-1.89,1.8-3.86,1.42-6.08-.17-1.01,.12-1.8,.84-2.49,1.02-.99,1.42-2.2,1.57-3.61,.25-2.46,.28-5.04,1.09-7.32,.8-2.25,1.27-4.43,1.25-6.78-.03-3.13,.03-6.1-1.8-9.05-1.9-3.08-1.98-7.1,1.76-10.44,.89-.8,1.77-1.52,2.79-2.18,.9-.59,1.4-1.87,1.96-2.9,.88-1.63,2.22-2.5,3.89-2.06,1.03,.27,1.67-.04,2.53-.5,3.65-1.92,7.29-1.97,10.84,.38,.84,.55,1.2,1.24,1.43,2.21,.9,3.87-.57,6.67-3.64,8.92-1.82,1.33-2.9,3.14-3.37,5.42-.48,2.35-1.38,4.6-1.89,6.94-.84,3.86-1.78,7.73-2.18,11.65-.33,3.26-1.11,6.39-1.91,9.52-.98,3.83-2.16,7.61-3.45,11.35-.91,2.64-3.25,3.43-5.84,2.27-1.88-.83-3.69-.96-5.31,.58-3.79,3.62-7.58,7.24-11.36,10.87-.29,.28-.49,.63-.74,.95,.07,.17,.14,.33,.21,.5"/><path class="cls-1" d="M277.32,183.33c-1.39-1.03-2.76-1.22-4.14-1-5.53,.9-11.06,1.84-16.58,2.85-1.03,.19-2.01,.73-2.96,1.2-1.65,.83-3.21,1.85-4.91,2.57-1.79,.75-2.82-.18-2.72-2.04,.07-1.27,.43-2.31,1.28-3.32,.65-.78,.85-1.89,1.47-2.71,.5-.66,1.24-1.41,2-1.57,2.89-.63,4.76-2.61,6.4-4.6,2.13-2.6,3.76-5.59,5.13-8.92-1.5,.32-2.81,.08-4.15,.69-1.14,.52-2.54,.53-3.84,.76-.29,.05-.64,0-.87,.15-2.56,1.64-5.56,2.36-8.31,3.6-1.54,.69-3.06,.98-4.53-.32-1.56-1.38-1.9-3.25-.71-4.96,.3-.43,.65-.83,.98-1.25,.18-.23,.55-.5,.51-.68-.39-1.57,1.08-1.97,1.84-2.83,.55-.63,1.05-1.3,1.77-2.19,.61,.04,1.62,.06,2.62,.16,1.71,.17,3.23-.29,4.63-1.18,2.82-1.79,5.66-3.55,8.44-5.4,.71-.48,1.32-1.19,1.77-1.92,1.21-1.93,2.35-3.91,3.43-5.92,.72-1.33,1.28-2.74,1.9-4.12,.12-.26,.21-.55,.25-.83,.26-1.55-.42-2.13-1.92-1.56-.65,.25-1.24,.7-1.81,1.11-1.73,1.26-3.4,2.61-5.6,3.09-2.73,.61-5.52-1.35-5.9-4.01-.3-2.1,.56-3.85,1.51-5.59,.51-.93,.99-1.8,1.05-2.91,.06-1.19,1.62-2.55,2.91-2.76,.71-.11,1.44-.21,2.16-.25,2.51-.1,5.01-.14,7.52-.25,.83-.04,1.66-.16,2.47-.33,1.52-.32,2.99,.11,4.44,.32,2.64,.39,4.58,1.94,6.12,3.96,.2,.26,.32,.63,.36,.96,.12,1.09,.32,2.2,.21,3.28-.08,.76-.6,1.48-.95,2.21-1.93,3.99-4.21,7.8-6.83,11.41-.82,1.13-1.81,2.18-2.86,3.12-.63,.56-1.49,.97-2.32,1.24-2.67,.87-5.41,1.55-8.05,2.49-1.92,.68-3.43,2.04-4.93,3.34,.05,.12,.1,.24,.16,.36,1.5-.26,3.01-.48,4.5-.78,4.42-.9,8.83-1.84,13.26-2.73,1-.2,2.04-.25,3.06-.33,1.74-.15,3.48-.24,5.22-.42,1.69-.18,3.34-.31,5.03,.15,1.21,.33,2.51,.33,3.76,.54,.71,.12,1.44,.26,2.08,.56,1.67,.77,1.7,1.59,.86,3.15-.56,1.03-1.94,2.03-.88,3.43-.93,1.11-2.09,1.4-3.42,1.39-1.57-.01-3.13,.05-4.7,.08-.18,0-.38-.07-.54-.01-1.91,.69-3.88,.35-5.83,.32-2.65-.05-4.56,1.23-6.18,3.06-1.8,2.03-3.25,4.28-4.39,6.71-.25,.52-.67,.96-.98,1.45-.36,.57-.69,1.17-1.23,2.11,1.01-.09,1.65-.09,2.26-.21,3.67-.72,7.34-1.39,10.98-2.24,3.44-.8,6.68-.77,9.73,1.22,.79,.51,1.75,.78,2.62,1.18,1.4,.64,1.79,1.84,1.08,3.15-.44,.81-.79,1.66-1.25,2.46-.22,.38-.58,.7-.93,1-.17,.15-.44,.23-.67,.24-4.1,.21-6.35,3.02-8.63,5.71-1.78,2.11-3.38,4.36-5.09,6.52-1.67,2.1-3.48,4.09-5.03,6.26-.74,1.03-1.42,2.04-2.49,2.76-.05,.03-.12,.07-.12,.12-.26,1.9-1.8,2.76-3.23,3.73-.28,.19-.38,.6-.64,.83-.54,.45-1.14,.84-1.94,1.41,.12,.17,.38,.55,.76,1.09-.24,.36-.57,.88-.93,1.39-.22,.32-.62,.6-.67,.93-.19,1.48-1.06,2.56-2.06,3.58-1.23,1.26-2.48,2.49-3.98,4-.3-.52-.48-.82-.67-1.16-.92,.65-1.78,1.25-2.78,1.96-.46-.57-.91-.96-1.14-1.46-.29-.62-.32-1.36-1.34-1.32-.14,0-.45-.56-.42-.83,.2-1.7,.18-3.5,1.86-4.68,.38-.27,.67-.66,1-1,.42-.43,.48-.89,.18-1.43-.33-.59-.59-1.21-.88-1.81,.12-.08,.24-.16,.36-.24,.54,.55,1.09,1.09,1.78,1.78,.49-.41,1.05-.74,1.43-1.21,5.18-6.32,10.32-12.67,15.51-18.98,1.12-1.36,2.38-2.62,3.59-3.92,1.41-1.51,2.66-3.12,3.7-5"/><path class="cls-1" d="M370.36,55.35c-.66,.16-1.29,.39-1.94,.46-1.77,.21-3.55,.46-5.33,.51-2.7,.09-5.35,.51-7.92,1.2-2.14,.58-4.18,1.46-6.26,2.22-.26,.09-.48,.28-.74,.37-2.55,.92-3.89,2.71-4,5.35q-.12,2.84-2.15,5.43c-.22-.11-.47-.21-.69-.36-.69-.46-1.18-.3-1.71,.29-1,1.11-2.44,1.14-3.49,0-1.33-1.42-2.52-2.97-2.87-4.9-.12-.69,.05-1.44,.08-2.15,.15-3.33,.25-6.67,.49-10,.13-1.75,.58-3.45,1.2-5.14,.61-1.67,.82-3.46,1.19-5.21,.04-.2,.05-.42,.06-.63,.08-1.58,.16-3.16,.24-4.75-.11-.05-.22-.1-.33-.15-.34,.3-.7,.58-1.02,.9-3.52,3.58-5.93,7.83-8.29,12.11-.87,1.58-1.55,3.33-2.76,4.63-1.72,1.84-2.7,4.07-4.23,5.99-1.29,1.63-2.29,3.46-3.53,5.13-1.01,1.36-2.1,2.69-3.29,3.92-1.69,1.76-5.77,1.6-7.13,.01-1.29-1.5-2.57-3.02-3.75-4.6-.54-.72-.44-3.06-.23-4.03,.18-.84,.13-1.72,.17-2.58,.12-2.29,.3-4.59,.3-6.89,0-.82-.5-1.62-.02-2.48,.11-.21-.06-.64-.24-.89-1.26-1.81-.74-3.94-1.23-5.89-.06-.22,.04-.55,.2-.74,.57-.7,.69-1.5,.83-2.34,.07-.43,.49-1.01,.9-1.16,1.22-.45,2.25-1.05,3.22-1.9,1.04-.92,2.23-1.76,3.5-2.35,1.33-.61,2.84-.88,4.28-1.29,.1-.03,.23-.03,.33,0,1.36,.54,2.73,1.05,4.06,1.66,.35,.16,.55,.62,.82,.95,.3,.37,.55,.8,.92,1.09,1.05,.82,1.3,1.88,1.27,3.08,0,.36-.1,.78,.06,1.07,.65,1.18,.1,2.2-.35,3.26-.47,1.1-1.24,1.85-2.15,1.93-.56,.88-.9,1.5-1.32,2.06-1.58,2.11-3.01,4.29-3.53,6.88-.17,.82-.23,1.66,.39,2.44,1.52,.07,2.57-.96,3.84-1.42,.5-.18,1.02-.32,1.48-.57,.35-.19,.81-.47,.9-.79,.58-2.18,2.68-3.46,3.6-5.44,.17-.37,.49-.94,1.3-.47,.39,.23,.75-.3,.44-.77-.49-.75-.19-1,.63-1.05,.22-.01,.62-.28,.61-.32-.23-.62,.09-.82,.64-1.06,.29-.13,.74-.52,.12-.98-.43-.33-.04-.84,.29-.83,1.13,.06,1.39-.8,1.89-1.4,.34-.41,.62-.87,.93-1.31,.27-.37,.72-.71,.15-1.2-.07-.06,.04-.4,.16-.54,.58-.63,1.19-1.23,1.79-1.84,.4-.41,.85-.71,1.11-1.31,.35-.78,1.13-1.39,1.86-2.23-.16-.58-.36-1.33-.56-2.08-.32-1.21-.13-1.43,1.14-1.94,.45-.18,.81-.64,1.13-1.04,.43-.53,.82-1.1,1.18-1.67,1.24-1.97,3.35-1.59,5.24-1.65,1.88-.06,3.38,.78,4.34,2.28,.6,.94,1.67,1.76,1.3,3.09-.08,.3-.1,.62-.23,.9-.84,1.65-1.62,3.32-2.58,4.91-1.46,2.42-1.67,5.07-1.86,7.74-.07,1.03,1.33,2.61,2.36,2.99,1.55,.57,3.16,.61,4.78,.52,4.46-.26,8.92-.58,13.39-.82,1.99-.11,3.8,.9,4.02,2.53,.11,.81,.82,1.56,.3,2.6-.33,.66,.18,1.69,.32,2.65"/><path class="cls-1" d="M89.74,60.61c1.68-.09,2.94-.13,4.2-.24,2.22-.18,4.34,.17,6.4,.92,1.13,.41,2.03,.98,2.52,2.12,.76,1.77,1.35,3.54,.74,5.46-.06,.2-.15,.41-.13,.61,.18,1.65-.71,2.93-1.68,4.14-1.47,1.84-3.17,3.44-5.08,4.95-2.26,1.78-4.85,2.77-7.48,3.72-1.64,.59-3.46,.85-5.22,.99-2.1,.16-4.48-1.85-4.81-3.81-.21-1.29-.49-2.57-.6-3.86-.14-1.59,.83-2.89,1.51-4.26,.94-1.89,1.9-3.77,2.82-5.66,.15-.31,.16-.69,.26-1.15-5.03-.67-9.78,.39-14.6,1.14,2.4-.69,4.81-1.39,7.22-2.06,2.09-.58,4.19-1.13,6.29-1.68,2.28-.6,3.77-1.98,4.55-4.04,.52-1.38,1.02-2.77,1.39-4.18,.44-1.68-.2-2.53-2.01-2.52-1.7,0-3.4,.26-5.1,.43-.78,.08-1.56,.15-2.32,.3-2.93,.57-5.85,1.19-8.78,1.73-1.24,.23-2.5,.39-3.76,.43-1.46,.04-2.8,.51-4.2,.81-.98,.21-1.96,.4-2.91,.69-.56,.17-1.09,.48-1.6,.77-1.75,.96-3.05,2.62-5.21,2.96-.85,.9-2.13,.78-3.21,1.05-.75,.18-1.68,0-2.44-.24-2.8-.9-4.23-3.24-3.8-6,.07-.45,0-.91-.01-1.37-.03-1.49,1-2.46,1.99-3.42,.31-.3,.76-.48,.33-.99-.08-.1-.09-.32-.03-.44,.79-1.53,1.24-3.23,2.58-4.48,.16-.15,.3-.37,.48-.41,1.28-.29,1.99-1.43,3.08-1.9,1.43-.62,2.78-1.61,4.65-1.1,.98,.27,2.34,.56,3.08-.74,.09-.15,.35-.25,.55-.31,1.74-.52,3.47-1.07,5.24-1.52,.65-.17,1.37-.08,2.11-.12,.14,1.22,.22,2.12-.69,2.96-.36,.33-.25,1.12-.35,1.69,1.56,.64,2.98,.48,4.33,.33,1.87-.21,3.69-.7,5.55-1.03,3.69-.66,7.19-2.01,10.9-2.64,.43-.07,.93-.23,1.2-.51,.58-.6,1.25-.99,2.04-1.26,.15-.05,.34-.14,.4-.26,.74-1.63,2.27-1.59,3.77-1.55,1.2,.04,2.41,.13,3.61,.26,.47,.05,.93,.23,1.39,.38,.21,.07,.37,.29,.58,.31,2.2,.23,3.86,1.62,5.74,2.49,1.73,.79,2.78,2.44,3.05,4.22,.11,.74-.46,1.75-1.05,2.36-1.06,1.12-2.33,2.07-3.58,3.02-.58,.44-1.27,.76-1.96,1.04-.9,.36-1.92,.52-2.76,.98-.69,.38-1.34,.69-2.15,.71-.24,0-.54,.18-.71,.36-2.24,2.39-4.46,4.8-5.72,7.81-.17,.42-.31,.85-.59,1.64m6.33,8c-1.47-2.56-3.92-3.37-6.65-3.71-.75-.09-1.3,.2-1.4,1.01-.28,2.33-.59,4.65-.88,6.97-.02,.15,.02,.31,.06,.47,.2,.88,.61,1.17,1.54,.94,3.38-.82,5.72-2.82,7.33-5.68"/><path class="cls-1" d="M202.79,53.71c-1.37,.74-2.41,1.32-3.47,1.87-2.82,1.48-5.66,2.94-8.48,4.42-.53,.28-1.02,.63-1.51,.97-1.23,.85-1.95,.84-3.19,.06-1.29-.81-2.03-1.88-2.28-3.32-.14-.8-.5-1.56-.79-2.4,.17-.09,.34-.26,.54-.28,2.99-.28,5.51-1.64,7.98-3.09,1.47-.86,2.93-1.74,4.35-2.66,.73-.47,1.37-1.05,2.06-1.57,.35-.26,.69-.54,1.08-.72,1.36-.63,2.36-1.61,2.96-2.89,1.11-2.39,2.14-4.82,3.2-7.23,.09-.19,.18-.38,.29-.56q1.19-1.77,1.2-3.62c1.09-.48,2.18-.98,3.29-1.43,.45-.18,.96-.32,1.45-.33,1.14-.01,1.7,.72,1.49,1.75-.13,.6-.13,1.23-.26,1.82-.15,.66-.24,1.37-.59,1.93-.9,1.42-1.4,2.92-1.67,4.56-.58,3.57-1.38,7.11-1.97,10.68-.32,1.91-.47,3.85-.56,5.78-.12,2.66-.13,5.33-.15,8,0,.56,.12,1.12,.19,1.71,1.16-.32,1.89-1.27,2.48-2.53,1.22-2.65,1.25-5.51,1.89-8.26,1.04-4.44,1.92-8.93,2.91-13.38,.29-1.33,.81-2.62,1.08-3.95,.21-1.01,.2-2.06,.27-3.09,.05-.72,.05-1.45,.1-2.18,.07-1.05,.44-1.93,1.57-2.4,.34-.14,.57-.5,.89-.69,.74-.44,1.47-.92,2.26-1.24,.71-.29,1.51-.39,2.25-.61,3.08-.91,5.11,2.3,4.31,4.28-.4,.99-1.18,1.86-1.87,2.72-.36,.45-.9,.77-1.37,1.15-1.5,1.22-2.15,2.89-2.72,4.58-2.13,6.3-3.48,12.78-4.64,19.29-.45,2.53-.71,5.08-.54,7.65,.09,1.28-.09,2.5-.71,3.74-.32,.08-.72,.13-1.05,.29-.58,.28-1.11,.87-1.82,.53-.78-.37-1.59-.8-2.2-1.38-.65-.62-1.08-1.43-1.6-2.16-.93,0-1.57,.43-2.01,1.05-.65,.93-1.56,1.23-2.61,.97-1.35-.33-2.4,.23-3.48,.76-5.52,2.74-10.36,6.37-15.01,10.24-1.88,1.56-3.82,3.06-5.72,4.6-.28,.23-.51,.51-1.02,1.04,1.52,.02,2.7,.07,3.89,.05,2.11-.03,4.22-.13,6.34-.15,2.6-.03,5.21,0,7.82,0,1.41,.8,2.65-.42,4.02-.28,.99,.09,2,.02,2.99-.03,1.44-.07,2.89-.16,4.32-.31,2.68-.28,5.35-.6,8.04-.91,.3-.74,.61-1.5,.9-2.24,.91-.16,1.6,.09,2.21,.62,.59,.52,1.24,.64,1.99,.27,1.24-.61,2.19,.13,2.97,.82,.38,.34,.65,1.38,.41,1.63-.7,.74,.38,1.3-.02,2-.34,.6-.27,1.39-.5,2.06-.12,.36-.42,.73-.75,.95-2.11,1.4-4.47,2.15-7.06,1.95-4.02-.31-8.02,.05-12.04,.13-6.87,.14-13.75,0-20.62,.05-3.01,.02-6.03,.18-9.04,.4-1.38,.1-2.73,.54-3.85,1.42-.94,.74-1.85,1.53-2.89,2.11-.94,.52-2.02,.86-3.08,1.1-.46,.11-1.14-.12-1.55-.4-.81-.55-1.56-1.2-2.21-1.91-.28-.31-.37-.86-.36-1.29,.02-1.92,1.08-3.4,2.59-4.56,1.05-.81,2-1.63,2.52-2.86,.18-.42,.74-.84,1.22-.97,1.06-.3,2.16-.49,3.26-.58,1.37-.12,2.61-.43,3.76-1.16,2.53-1.62,5.04-3.28,7.67-4.75,3.93-2.19,7.99-4.2,11.95-6.34,2.42-1.31,4.75-2.75,7.15-4.08,.57-.32,.76-.69,.68-1.28-.19-1.57-.13-3.09,.42-4.63,.3-.85,.04-1.87,.05-2.8,.02-2.2,.05-4.4,.06-6.6,0-.51-.05-1.02-.1-1.87m-10.56,37.83q-.79-.46-1.67,0h1.67Zm2.88-.2c.02,.1,.04,.2,.06,.31,.27-.03,.54-.07,.81-.1,0-.08-.02-.17-.02-.25-.28,.02-.56,.03-.85,.05"/><path class="cls-1" d="M228.64,59.27c.75,.18,1.6,.33,2.42,.58,2.67,.83,5.15,.59,7.51-.91,1.8-1.14,3.69-2.16,5.68-3.32-.46,1.76-2.1,2.69-3,4.32,2.09-.36,3.94-.67,5.8-1,2.07-.37,4.14-.79,6.23-1.12,.69-.11,1.44,.15,2.12,.03,3.28-.56,6.55-1.18,9.82-1.79,.33-.06,.66-.15,.95-.3,2.29-1.11,4.69-1.41,7.26-1.21,2.35,.18,4.75,.42,7.09-.26,.29-.08,.66,.08,.98,.05,.49-.04,1.11,0,1.43-.25,.93-.75,2.01-.85,3.13-.93,.33-.03,.69-.01,.98-.13,2.33-.97,4.58-.43,6.82,.29,.53,.17,1.06,.36,1.55,.6,1.11,.55,1.67,1.76,1.19,2.79-.82,1.75-2.04,3.32-3.78,4.27-1.13,.62-2.64,.69-4,.9-2.2,.34-4.43,.56-6.64,.88-1.19,.18-2.17,.73-3.02,1.57-.64,.63-1.43,1.18-2.23,1.64-1.92,1.1-2.79,2.84-3.17,4.77-.34,1.74-.42,3.53-.58,5.29-.08,.86-.45,1.48-1.32,1.84-.81,.34-1.6,.73-2.39,1.12-1.49,.74-2.71,.33-3.36-1.14-.18-.41-.36-.83-.65-1.51-2.48,2.92-3.42,6.03-3.66,9.7,.72-.24,1.22-.37,1.71-.56,2.62-1.03,5.36-1.43,8.18-1.36,2.42,.05,4.49,.91,6.12,2.55,1.06,1.07,1.13,2.57,1.47,3.92,.08,.3-.05,.65,.05,.93,1.13,3.14-.43,5.66-2.26,8-1.58,2.03-3.7,3.65-6,4.96-1.99,1.13-4.19,1.72-6.56,1.64-.39-.01-.78-.02-1.17-.01-3.24,.05-5.33-1.67-6.38-4.55-1.07-2.94-.42-5.8-.22-8.7,.03-.42,.14-.83,.18-1.24,.01-.09-.06-.2-.11-.36-1.76-.19-2.91,1.55-4.57,1.67-.06-.15-.13-.3-.19-.46,.82-.39,1.63-.77,2.56-1.22,.04-.68,.36-1.32,1.12-1.82,1.48-.97,2.26-2.35,2.71-4.01,.99-3.65,2.85-6.94,5.19-9.99,.92-1.2,1.86-2.36,1.88-3.95,0-.39,.22-.82,.47-1.16,.9-1.24,.73-2.59,.59-3.95-.08-.86-.61-1.35-1.47-1.47-.88-.13-1.79-.28-2.67-.2-2.83,.27-5.65,.63-8.47,.99-2.03,.26-4.07,.52-6.08,.91-2.44,.48-4.86,1.1-7.29,1.64-.75,.17-1.52,.25-2.26,.47-1.93,.57-3.87,1.13-5.76,1.82-.91,.33-1.7,.94-2.53,1.44-.37,.22-.65,.6-1.04,.75-.7,.26-1.56,.7-2.17,.52-1.14-.33-2.24-.93-3.18-1.64-.65-.49-.78-1.35-.49-2.19,.43-1.27,1-2.43,2.12-3.32,.55-.44,1.02-.97,1.55-1.43,1.48-1.28,2.04-2.82,1.55-4.68-.04-.15-.01-.31,0-.46,0-.04,.06-.08,.22-.28m37.49,29.17c-1.23,.27-2.48,.52-3.7,.82-.62,.15-.88,.62-.82,1.21,.13,1.4,.29,2.81,.4,4.21,.16,2.08,.46,2.35,3.17,2.54,.65,.04,1.34-.38,2.01-.6,.53-.17,.9-.79,1.67-.4,.14,.07,1.07-.69,1.08-1.08,.03-1.09,.38-2.09,.64-3.12,.17-.68,.08-1.2-.31-1.77-.98-1.42-2.46-1.67-4.14-1.82"/><path class="cls-1" d="M116.41,125.65c1.2-.15,2.15-.4,3.08-.36,1.53,.07,3.08,.2,4.56,.57,1.06,.26,2.01,.96,3.01,1.46,.21,.11,.38,.28,.6,.36,2.2,.83,3.09,2.38,3.06,4.64-.02,2.28-.79,4.21-2.17,6.01-.93,1.22-2.42,1.48-3.68,2.1-1.63,.81-3.33,1.5-5.06,2.09-1.57,.54-3.21,.91-4.84,1.29-.94,.22-1.77,.4-2.47,1.23-1.07,1.28-2.41,2.35-3.63,3.51,.04,.12,.09,.24,.13,.36,.69,.03,1.39,.16,2.06,.06,1.55-.24,3.1-.54,4.61-.92,1.39-.36,2.65-.94,3.8-1.88,1.22-.99,2.65-1.94,4.15-2.36,1.31-.36,2.85,0,4.29,.1,1.2,.08,2.38,.29,3.58,.36,1.83,.11,3.64,2.1,3.53,3.89-.03,.57,.12,1.14,.12,1.72,.03,1.71-.23,3.28-1.81,4.46-.88,.66-1.48,1.66-2.28,2.45-.83,.83-1.7,1.63-2.64,2.35-.71,.54-1.49,.93-2.51,.47-.32-.15-1.02,.02-1.27,.28-2.18,2.25-4.16,4.63-5.35,7.71,.42,.05,.76,.17,1.07,.12,2.32-.37,4.62-.8,6.94-1.15,1.03-.15,1.95,.09,2.9,.65,2.69,1.57,3.87,3.89,4.56,6.75,.54,2.2,.41,3.89-1.43,5.43-.84,.7-1.42,1.68-2.12,2.53-.07,.09-.17,.23-.25,.23-2.25,.04-3.43,1.99-5.3,2.73-1.84,.73-3.6,1.62-5.39,2.45-.52,.24-1.02,.53-1.45,.96,2.96-.09,5.38-1.49,7.74-3.04,.08,.26,.16,.41,.14,.43-3,2.07-6.04,4.06-9.82,4.57-1.28,.17-2.65,.74-3.8-.32-1.34-1.23-2.32-2.68-2.47-4.51-.24-3.12,.61-6.08,1.53-9.01,.65-2.09,1.5-4.12,2.32-6.37-1.76-.36-3.41-.69-5.05-1.03,.21-.92,.72-.72,1.19-.69,1.02,.05,2.07,.21,3.05,.05,.7-.12,1.59-.54,1.92-1.09,1.67-2.81,3.19-5.71,4.75-8.59,.09-.17,.03-.42,.05-.84-1.21,.33-2.28,.64-3.36,.92-4.2,1.09-8.39,2.2-12.6,3.23-1.94,.47-3.84,.97-5.62,1.89-.79,.41-1.66,.74-2.54,.88-1.72,.29-3.12-.56-4.13-1.72-2.01-2.3-2.62-4.65-1-7.33,.68-1.13,1.23-2.31,2.38-3.21,.64-.5,.92-1.6,1.06-2.47,.27-1.69,.73-2.07,2.44-2.22,2.12-.18,4.22-.4,6.01-1.88,1.68-1.39,3.6-2.51,5.46-3.68,1.03-.65,1.46-1.67,1.93-2.64,.18-.37,0-1.01-.24-1.42-.32-.56-.46-1-.14-1.61,.17-.32,.15-.8,.07-1.17-.34-1.5,.33-2.87,.53-4.29,.14-1.01,.84-1.61,1.73-2.09,1.63-.87,3.23-1.79,4.08-3.4m.98,49.84c.07,.7,.1,1.22,.17,1.74,.16,1.05,.69,1.56,1.71,1.69,2.23,.29,5.99-1.71,6.95-3.7,.39-.8,.39-1.5-.33-2.21-1.84-1.81-4.11-2.54-6.67-2.65-.85-.04-1.17,.51-1.28,1.19-.22,1.37-.39,2.74-.56,3.94"/><path class="cls-1" d="M256.51,16.79c-.57-.33-1.04-.63-1.54-.88-1.04-.5-2.19-.84-3.1-1.49-.61-.43-1.04-1.23-1.27-1.94-.4-1.24-.58-2.54-.84-3.81-.02-.1-.03-.22,0-.31,.63-1.85,1.46-3.57,3.17-4.81,.65-.47,1.3-.97,1.8-1.57,1.37-1.66,3.05-2.37,5.26-1.76,2.23,.61,4.46,1.23,6.68,1.84,1.83,1.73,4.53,2.4,6.06,4.55,1.02,1.43,.4,2.66-.02,3.98-.09,.28-.55,.5-.56,.75-.07,1.62-1.51,2.1-2.65,2.7-1.05,.55-2.31,.74-3.42,1.21-1.93,.8-3.87,1.6-5.71,2.56-.97,.51-1.75,1.35-2.62,2.04,.05,.13,.1,.26,.15,.4,.62-.03,1.27,.04,1.85-.12,1.92-.53,3.83-1.11,5.73-1.72,1.63-.53,3.22-1.16,4.86-1.66,.62-.19,1.38-.33,1.97-.16,2.59,.72,5.34,.98,7.75,2.24,.33,.17,.59,.46,.83,.74,.21,.24,.3,.61,.55,.77,2.07,1.29,1.55,3,.92,4.73-.07,.2-.18,.39-.21,.59-.39,2.68-2.42,4.08-4.72,5.24-.87,.44-1.83,.79-2.79,1.02-3.14,.74-5.35,2.78-7.49,4.81-4.41,4.17-8.67,8.47-13.02,12.69-1.4,1.36-2.8,2.72-4.33,3.93-1.64,1.29-3.54,1.73-5.72,1.19-.98-.24-2.08-.04-3.15-.04-.07-.13-.24-.3-.2-.39,.95-2.14,1.69-4.37,3.71-5.99,2.89-2.32,5.65-4.76,8.43-7.2,3.63-3.2,7.15-6.49,10.23-10.17,.39-.47,.69-1.01,1.14-1.68-.56-.11-.89-.29-1.15-.22-3.56,.93-7.05,1.98-9.9,4.35-1.17,.97-2.44,1.85-3.75,2.64-1.8,1.1-4.1,.67-5.69-.37-2.57-1.67-2.79-3.99-1.4-6.62,.6-1.14,1.59-2.13,2.52-3.09,.42-.43,.63-.8,.65-1.35,.03-.68,.11-1.36,.27-2.02,.15-.59,.49-1.13,1.28-.96,2.34,.53,4.28-.28,6.08-1.53,1.2-.83,2.46-1.62,3.36-3.08"/><path class="cls-1" d="M362.22,125.21c2.01-.23,3.76-.36,5.49-.64,3.78-.59,7.57-1.16,11.31-1.93,2.06-.43,4.03-1.26,6.05-1.91,.53-.17,1.05-.56,1.57-.53,3.76,.18,7.03,1.48,9.42,4.5,2.15,2.73,.96,6.22-2.42,7.19-1.29,.37-2.61,.62-3.9,.99-3.52,1.02-5.69,3.57-7.29,6.67-.53,1.02-1.54,1.91-1.16,3.4,2.79,.27,5.58,.6,8.38,.81,3.69,.28,5.32,1.87,5.65,5.53,.5,5.59-1.92,9.93-6,13.36-4.04,3.39-8.64,5.92-13.69,7.55-.47,.15-.98,.25-1.4,.49-1.84,1.07-3.46,.6-5.18-.4-2.15-1.25-3.04-3.04-2.98-5.45,.03-1.06,.1-2.14-.06-3.18-.31-2.05,.47-3.76,1.44-5.42,1.71-2.93,3.49-5.83,5.22-8.75,.28-.47,.47-.98,.81-1.69-1.93-.61-3.71-1.18-5.71-1.81,.44-.24,.73-.51,1.05-.55,1.61-.19,3.23-.38,4.86-.46,.86-.04,1.54-.26,1.95-1.02,1.47-2.74,2.93-5.49,4.38-8.24,.05-.1-.03-.27-.08-.65-.66,.04-1.34,.04-2.01,.15-6.15,.97-12.31,1.93-18.46,2.97-2.33,.39-4.37,1.38-6.14,3.11-2.38,2.32-5.2,3.6-8.68,2.42-2.59-.87-5.4-3.85-5.29-6.46,.11-2.52,.82-5.07,2.66-6.99,1.35-1.4,2.65-2.85,4.82-3.24,1.49-.26,2.83-1.48,4.31-1.65,2.52-.29,4.55-1.23,6.3-3.01,.93-.95,2.02-1.73,3-2.64,1.39-1.28,3.02-2.03,4.8-2.61,1.11-.37,2.2-.95,3.13-1.66,1.22-.94,1.2-1.56,.31-2.9-.69-1.05-1.65-1.87-1.93-3.23-.48-2.27,.07-3.91,2.16-4.94,2.16-1.07,3.9-2.68,5.78-4.13,.38-.3,.81-.56,1.25-.76,3.71-1.71,7.27-1.17,10.76,.68,.06,.03,.14,.05,.19,.1,1.8,1.97,3.65,3.89,5.34,5.95,.68,.82,.86,2.04,.24,3.02-1.73,2.77-3.5,5.53-6.82,6.68-.2,.07-.4,.17-.61,.19-3.63,.31-7.18,1.46-10.91,.75-3.8-.72-5.71,.46-7.71,3.77-.61,1.01-1.41,1.92-2.17,2.83-.85,1.02-1.9,1.9-2.02,3.75m13.79,33.5c1.12-.41,1.99-.55,2.66-1,1.68-1.14,3.36-2.32,4.86-3.69,1.34-1.22,1.53-3.41,.49-4.16-1.48-1.06-3.04-2.05-5.15-2.18-1.54,3.43-2.61,6.92-2.86,11.03"/><path class="cls-1" d="M185.56,66.9v1.14c.38-.13,.7-.24,1.03-.35,1,1.8,.83,3.71,.72,5.55-.05,.81-.6,1.74-1.23,2.33-1.21,1.14-2.74,1.15-4.07,.08-.86-.7-1.69-1.58-2.16-2.53-1.17-2.37-2.12-4.83-3.16-7.26-.53-1.25-.93-2.57-2.26-3.57-1.42,.99-2.82,1.97-4.44,3.1,.17,1,.37,2.22,.57,3.45,.1,.6,.36,1.24-.39,1.7-.16,.09-.33,.39-.28,.51,.47,1.08-.3,1.76-.81,2.56-.24,.37-.25,.88-.37,1.33-2.48,1.5-5.06-.07-6.52-1.78-.76-.88-1.31-1.95-1.79-3-.84-1.82-1.55-3.7-2.34-5.54-.35-.81-.59-1.7-1.45-2.19-1.55,.49-3.03,.92-4.49,1.43-.92,.32-1.59,.21-2.17-.58-.47-.64-1.12-1.17-1.56-1.82-.64-.97-.59-2.11,.06-2.97,.96-1.27,1.45-2.67,2.07-4.07,.44-1,1.45-1.82,2.31-2.61,1.03-.95,2.16-1.8,3.28-2.65,.69-.52,1.4-1.06,2.19-1.39,1.57-.66,3.21-1.15,4.8-1.75,1.73-.66,4.13-3.43,3.88-5.29-.06-.42,.1-.93,.33-1.32,.68-1.13,1.26-2.41,2.25-3.27,1.02-.89,2.46-1.36,3.73-1.98,.54-.26,1.11-.49,1.74-.13,.17,.1,.45,.13,.64,.07,3.18-1.03,5.4,.63,7.47,2.46,.54,.48,.79,1.39,.89,2.14,.15,1.07,.05,2.17,.03,3.26,0,.19-.13,.41-.27,.56-.8,.84-1.59,1.7-2.46,2.49-.64,.58-1.34,1.1-2.32,1.13-.32,.01-.65,.16-.94,.3-1.48,.71-2.98,1.39-4.42,2.15-2.53,1.34-4.46,3.25-5.76,5.69-.12,.23-.17,.5-.23,.75-.27,1.13-.12,3.16,.39,4.84,.62-.72,1.21-1.29,1.67-1.95,1.89-2.73,4.62-4.46,7.65-5.89,.78-.37,1.47-.93,2.16-1.46,.51-.4,.96-.88,1.42-1.33,2.07-2.04,3.8-4.27,4.06-7.2,.08-.85,.5-1.47,1.05-2.07,.47-.52,.91-1.06,1.43-1.54,.68-.63,1.24-1.59,2.51-.84,.23,.14,.73-.13,1.11-.2,2.39-.41,4.24,1.4,3.55,3.59-.26,.82-.69,1.73-1.35,2.27-2.55,2.09-4.54,4.6-6.55,7.12-.97,1.21-2.07,2.34-3.17,3.45-.83,.84-1.27,1.73-1.34,2.92-.13,2.52,.63,4.86,1.24,7.25,.17,.66,.43,1.3,.6,1.96,.18,.71,.56,1.14,1.46,.95"/><path class="cls-1" d="M208.09,155.54c.83-1.1,1.66-2.19,2.49-3.29,.12,.06,.24,.12,.36,.19-.37,.65-.67,1.35-1.11,1.94-1.71,2.27-3.05,4.65-3.6,7.48-.32,1.65-1.35,3.18-2.15,4.97-.52-.58-.92-1.02-1.38-1.54-1.06,.62-1.68,2.05-3.47,1.56,.43,1.06,.13,1.83-.51,2.56-.37,.42-.47,1.04-.79,1.51-.89,1.3-1.67,2.7-2.79,3.79-.64,.62-1.86,.69-2.8,1.05-1.01,.4-1.79-.14-2.72-.38-2.2-.58-3.45-2.12-4.43-3.77-.99-1.67-1.59-3.53-1.75-5.57-.17-2.17-.04-4.34-.2-6.51-.1-1.36,.28-2.74,.25-4.11-.06-2.36-.14-4.74-.99-7-.19-.51-.59-.96-.9-1.43-.06-.1-.22-.16-.24-.25-.3-1.48-1.76-2.5-1.92-3.94-.12-1.14,.36-2.35,.61-3.51,.1-.45,.39-.86,.43-1.31,.07-.64,.46-.89,1.01-1.08,.79-.27,1.56-.5,2.04-1.31,.22-.38,.89-.53,1.37-.76,.43-.21,.99-.29,1.27-.6,.73-.8,1.73-.99,2.64-.88,1.17,.15,2.24-.14,3.35-.22,3.16-.23,6.12-.95,8.97-2.34,1.79-.87,3.68-1.73,5.85-1.41,1.99,.3,4.02,.42,5.98,.86,1.92,.43,3.39,2.83,3.13,4.72-.11,.8-.16,1.63-.44,2.38-.3,.8-.65,1.73-1.3,2.22-2.1,1.61-3.13,3.78-3.88,6.11-.89,2.76-1.65,5.56-2.44,8.34-.13,.46-.17,.94-.25,1.41,.11,.04,.21,.08,.32,.13m-7.64-12.29c-1.14,.69-2.1,1.45-2.75,2.5-.93,1.51-1.72,3.1-2.74,4.54-1.13,1.59-2.08,3.23-2.02,5.19,.08,2.36,.34,4.71,.54,7.07,.1,1.22,.92,1.72,1.96,1.03,.7-.46,1.35-1.21,1.66-1.96,.71-1.78,1.3-3.61,1.74-5.47,.76-3.27,1.4-6.56,2.02-9.86,.19-.99,.32-2.03-.42-3.04"/><path class="cls-1" d="M307.01,88.34c-.36-.12-.61-.22-.88-.28-.83-.18-1.02-.65-.91-1.4,.24-1.81,.92-3.43,2.07-4.9,1.04-1.35,1.02-1.4,.71-2.72,1.29,.09,2.07-.83,3.01-1.4,.95-.58,1.73-1.29,2.98-.47,.61,.4,1.38,.12,2.03-.31,1.49-.99,3-1.96,4.53-2.91,1.01-.63,2.07-1.2,3.14-1.82-.43,1.07-1.14,1.97-2.06,2.76-1.32,1.13-2.65,2.26-3.95,3.41-.26,.23-.44,.54-.74,.92,1.09,.62,2.1,.26,3.03,.11,1.48-.24,3.02-.48,4.37-1.06,2.08-.9,4.38-1.04,6.47-1.97,1.4-.62,3.15-.89,4.7-.78,1.19,.08,2.21-.13,3.28-.39,1.07-.26,2.11-.62,3.19-.86,1.58-.35,3.17-.66,4.8-.3,.8,.18,1.69,.27,2.37,.66,2.12,1.23,2.64,2.59,2.08,4.96-.29,1.21-.8,2.18-2.18,2.75-1.78,.73-3.45,1.71-5.15,2.62-.53,.28-1.07,.62-1.45,1.04-1.76,1.94-3.46,3.92-5.19,5.88-.21,.24-.48,.43-.7,.66-.57,.62-1.12,1.26-1.69,1.89-.32,.36-.66,.7-.99,1.05-.31,.33-.62,.66-.97,1.04,2.18,.91,8.76,1.09,11.21,.29,.65,.65,1.38,1.37,2.06,2.06-.54,1.96-1.92,2.96-4.16,3.24-4.12,.52-8.24,.26-12.36,0-1.43-.09-2.89,.05-4.33,.14-1.03,.06-1.95,.39-2.66,1.16-.44,.48-.92,.41-1.62,.26-1.17-.24-2.43-.07-3.43-.07-.47-.68-.85-1.24-1.33-1.93,1.03-1.52,2.15-3.16,3.27-4.81,1.65,.59,2.57-.21,3.45-1.09,1.24-1.25,2.48-2.51,3.72-3.76,.64-.65,1.33-1.13,2.16-.57,.87-.81,2.03-1.42,2.33-2.29,.47-1.32,2.11-1.53,2.47-2.8,.04-.13,.36-.25,.56-.27,1.17-.13,1.12-1.26,1.73-1.86,.34-.33,.32-.98,.49-1.57-.2,0-.44,0-.68,0-.58-.02-1.16-.04-1.74-.09-.43-.03-.9-.22-1.3-.13-2.38,.54-4.75,1.16-7.13,1.72-2.16,.51-4.36,.92-6.5,1.5-.99,.27-1.97,.74-2.81,1.31-.9,.6-1.59,1.45-2.44,2.13-1.97,1.58-2.08,3.68-2,6.1,.99-.89,.6-2.02,1.32-2.97,.06,.42,.15,.68,.12,.93-.13,1.2-.12,2.44-.48,3.58-.61,1.92-.51,3.8-.16,5.73,.11,.63-.03,1.34-.23,1.96-.21,.65-.64,1.24-1.03,1.98-.36-.09-.81-.2-1.31-.32-.68,.76,.52,1.14,.43,1.92-.24-.14-.47-.19-.54-.32-.97-1.76-2.01-3.5-2.85-5.31-1.06-2.28-.8-4.74-.74-7.13,.05-2.09,.39-4.17,.6-6.25,.02-.15,0-.31,0-.62"/><path class="cls-1" d="M177.31,165.57c-1.4,.56-2.69,.86-4.1,.99-3.84,.37-7.68,.81-11.46,1.49-3.62,.65-4.05,1.42-4.13,4.95-.07,2.93-.16,5.88-1.25,8.55-1.06,0-2.07-.21-2.9,.06-.78,.25-1.39,1.01-2.04,1.52-.92-.79-1.84-1.34-2.38-2.13-.57-.83-1.02-1.87-1.1-2.85-.16-2-.06-4.03-.02-6.05,.02-.92,.12-1.84,.23-2.75,.44-3.49,.91-6.98,1.35-10.47,.29-2.29,.52-4.59,.85-6.88,.52-3.67,1.11-7.33,1.62-11,.17-1.25,.19-2.51,.28-3.73-.26-.16-.4-.28-.56-.33-1.77-.56-1.91-.82-1.46-2.47,.51-1.89,1.12-3.74,.82-5.77-.16-1.11,.93-1.65,1.84-2.11,1.32-.67,2.72-1.23,3.98-1.99,1.49-.9,3.03-1.63,4.76-1.99,2.14-.45,3.67,.67,4.95,1.93,1.27,1.26,1.34,2.95,.4,4.5-.54,.89-1.15,1.78-1.91,2.5-1.88,1.78-2.86,3.91-3.3,6.38-.57,3.24-1.4,6.45-1.96,9.69-.43,2.5-.64,5.04-.93,7.57-.09,.8-.13,1.61-.22,2.41-.18,1.52,.25,2.16,1.82,2.08,2.77-.15,5.54-.4,8.27-.8,2.15-.32,4.3-.63,6.45-.3,.81,.12,1.65,.67,2.27,1.24,.93,.86,.82,1.27-.11,2.25-.58,.62-.98,1.29-.47,2.17,.22,.38,.27,.85,.41,1.32"/><path class="cls-1" d="M241.89,188.19c-.51,.35-1.02,.7-1.67,1.13,.49,.35,.85,.61,1.21,.86-.01,.1,0,.23-.05,.31-.55,.78-.95,1.77-1.71,2.28-.78,.53-1.98,.46-2.88,.88-2.17,1.03-4.41,.87-6.67,.63-1.67-.18-3.33-.49-5.01-.64-1.22-.11-2.45-.04-3.67-.1-.59-.03-1.17-.19-1.75-.21-1.97-.05-3.95-.04-5.92-.11-1.37-.05-2.75-.15-4.11-.28-1.31-.13-2.57-.32-3.93-.12-1.89,.28-3.85,.19-5.78,.15-2.45-.04-4.82,.45-7.06,1.27-1,.37-1.82,1.27-2.61,2.04-1.78,1.74-3.86,2.89-6.33,3.46-.81,.18-1.36,.07-1.92-.52-2.46-2.57-2.63-2.8-1.62-6.17,.44-1.47,1.4-2.78,2.81-3.68,.3-.19,.71-.3,.89-.56,1.43-2.05,3.73-2.83,5.91-3.81,1.02-.46,2.02-1.06,2.88-1.76,5.55-4.55,11.05-9.15,16.58-13.73,.73-.6,1.51-1.14,2.27-1.71,.1,.07,.19,.14,.29,.21-.51,.68-.92,1.47-1.55,2.04-4.82,4.36-8.49,9.63-12.52,14.6-.1,.12-.1,.32-.21,.68,.7,.07,1.33,.19,1.96,.19,3.55-.02,7.1,0,10.65-.13,1.52-.06,3.04,.05,4.57-.19,1.1-.18,2.3,.25,3.46,.42,.41,.06,.91,.38,1.21,.25,1.89-.85,3.9-.35,5.83-.58,.77-.09,1.39-.61,2.32-.37,.47,.12,1.21-.69,2.03-1.21,.19,.11,.62,.3,.97,.58,.93,.75,1.91,.94,3,.39,.67-.33,1.31-.27,2.06-.2,1.22,.12,2.49-.16,3.81-.28-.24,1.84,1.27,2.72,2.27,3.95"/><path class="cls-1" d="M326.6,145.82c.82,.14,1.4,.23,1.81,.3,.89-.76,1.67-1.44,2.48-2.07,.22-.17,.54-.26,.83-.32,2.61-.55,4.65,0,3.94,3.37-.69,3.27-1.39,6.55-1.92,9.85-.43,2.66-.61,5.37-.9,8.05-.12,1.13,.13,2.33-.64,3.34-.06,.08-.1,.23-.07,.32,.83,1.88-.09,3.78,.09,5.66,.06,.6,.16,1.28-.87,1.72-.24-.75-.46-1.41-.69-2.13-.7,1.49-.74,5.43-.09,7.94,.19-.17,.53-.39,.5-.46-.53-1.14,.53-2.26,0-3.43-.17-.38,.03-.92,.07-1.44,.99,.24,1.29,.78,1.12,1.37-.61,2.09,.09,4.05,.52,6.05,.15,.72,.2,1.49,.12,2.22-.12,1.04-.34,1.91-1.83,2.14-1.31,.2-2.49,1.07-3.78,1.52-2.02,.7-3.26,.12-3.65-1.84-.35-1.74-.5-3.5-.2-5.32,.36-2.21,.29-4.48,.4-6.72,.07-1.31,.12-2.62,.16-3.94,0-.28-.04-.55-.06-.93-1.15,.02-1.83,.63-2.37,1.4-.94,1.33-1.88,2.67-2.73,4.05-.49,.79-.81,1.69-1.86,1.99-.11,.03-.23,.11-.27,.2-1.59,3.25-4.63,5.26-7.26,7.58-2.29,2.03-5.11,3.3-8.34,3.26-.8,0-1.65-.31-2.38-.67-1.34-.67-1.43-1.11-.95-2.53,.19-.55,.26-1.13,.46-1.67,.41-1.09,.93-1.33,2.17-1.16,.47,.06,1,.12,1.42-.03,1.65-.55,3.39-.99,4.88-1.82,3.65-2.04,7.16-4.28,9.93-7.46,1.04-1.19,2.27-2.14,2.69-3.78,.18-.72,.95-1.31,1.49-1.93,1.61-1.85,2.87-3.9,3.52-6.21,.54-1.94,.8-3.97,1.06-5.97,.45-3.43,.8-6.88,1.21-10.5m6.17,9.18q-1.15,1.59-.08,2.74c-.1-.84-.21-1.53,.43-2.02,.05-.04-.2-.43-.34-.72m-1.75,15.11c-.25,.79-.69,1.58,0,2.7,.15-1.11,1.14-1.83,0-2.7m-3.64,5.02c.11-.08,.23-.16,.35-.25-.3-.51-.61-1.02-1.06-1.79q-.33,1.71,.72,2.03m-.71,4.38c-.14,0-.29,.02-.43,.02,.03,.31,.06,.61,.09,.92,.1,0,.2-.01,.3-.02,.02-.31,.03-.62,.04-.92m4.24-10.73q.58-.67,0-1.3v1.3Zm-3.65,8.82s.05,0,.07,0v-.66s-.04,0-.07,0v.66Zm-.25-.23c-.37-.23-.48-.33-.62-.38-.03-.01-.2,.17-.18,.24,.04,.14,.13,.34,.24,.37,.12,.03,.29-.11,.56-.23"/><path class="cls-1" d="M90.66,30.93c-1.24-.73-2.15-.55-3.36,.24-1.48,.97-3.12,1.98-5.15,1.87-.41-.02-.83,.22-1.25,.35-.97,.28-1.9,.54-2.77-.31-.22-.21-.78-.12-1.35-.18-.66-.88-1.46-1.85-2.16-2.89-.78-1.15-1.23-2.41-1.04-3.81,.04-.3,.15-.6,.25-.89,.24-.68,.46-1.38,.75-2.04,.23-.51,.45-1.1,.86-1.46,1.93-1.68,2.99-3.85,4.12-6,.27-.51,.8-.95,1.32-1.29,1.31-.85,2.68-1.33,4.38-.83,1.23,.36,2.58,.36,3.88,.53,1.5,.2,2.99,.47,4.54,.37,.38-.03,.92,.4,1.16,.75,.95,1.38,2.52,1.69,4,2.17,.6,.19,2.61,1.36,2.88,1.91,.34,.69,.83,1.2,1.51,1.61,.69,.42,1.07,1,.94,1.86-.06,.35,.12,.79,.33,1.11,.48,.72,.43,1.49-.07,2.06-.6,.69-1.12,1.54-2.31,1.65-.48,.04-.95,.49-1.37,.81-1.64,1.27-3.37,2.24-5.62,1.55-1.47,.42-3.19-.44-4.47,.85"/><path class="cls-1" d="M135.98,182.89c-2.09,4.04-5.36,7.33-7.98,11.2,1.51,.57,2.99,.4,4.35,.22,4.02-.52,8.05-.39,12.08-.48,3.24-.07,6.48-.45,9.72-.72,1.68-.14,3.36-.34,5.05-.49,1.89-.17,3.65-.67,5.08-1.93,.37-.32,.65-.73,1.11-1.26,.31,.85,.48,1.65,.88,2.31,.44,.72,.35,1.38,.29,2.13-.05,.72,.24,1.47,.39,2.21,.55,2.75-.31,3.66-2.33,4.39-2.34,.85-4.78,1.15-7.26,1.3-4.78,.29-9.52,.05-14.29-.28-3.6-.24-7.23,.02-10.78,.74-2.77,.56-5.51,1.38-8.32,1.67-2.04,.22-3.64,1.07-5.26,2.05-1.46,.88-1.57,.68-3.06-.27-1.95-1.25-1.47-2.91-1.39-4.61,.1-2.23,1.56-3.87,2.7-5.58,.66-.99,1.91-1.74,3.06-2.3,1.57-.75,3.07-1.55,4.46-2.61,2.07-1.59,4.28-3.01,6.39-4.55,.95-.7,1.79-1.54,2.72-2.26,.63-.49,1.33-.88,2-1.32,.13,.14,.26,.28,.39,.41"/><path class="cls-1" d="M232.34,169.41c-.71-.53-1.15-.86-1.7-1.27-.34,.45-.6,.8-.86,1.14-1.51-.21-2.77-.57-3.66-1.99-.88-1.41-1.06-1.3-1.7-3.67-.77-.12-1.55-.25-2.45-.4,.19-.38,.22-.6,.33-.66,2.31-1.13,2.87-3.14,2.95-5.38,.1-2.89,.14-5.78,.25-8.67,.14-3.64,.33-7.28,.51-10.92,.09-2.02,.23-4.04,.29-6.07,.04-1.76,0-1.76-1.77-2.41,.49-1.91,.99-3.85,1.52-5.94-.11-.15-.38-.49-.63-.82,.15-.17,.23-.31,.31-.32,.42-.01,.87-.09,1.24,.03,1.63,.55,2.84,.21,3.93-1.15,.49-.62,1.39-1,2.39-1,.95,0,1.89-.34,2.84-.41,2.85-.21,4.83,2.25,3.79,4.8-.6,1.48-1.09,3.04-2.44,4.18-.52,.44-.82,1.28-.95,1.98-.44,2.45-.82,4.9-1.12,7.37-.31,2.58-.56,5.17-.74,7.76-.13,1.83-.09,3.67-.16,5.51-.03,.74-.19,1.47-.19,2.21,0,.61,.16,1.21,.22,1.82,.12,1.35,.23,2.7,.32,4.05,.09,1.44,.2,2.87,.21,4.31,0,.43-.18,.96-.48,1.27-1.22,1.26-1.96,2.73-2.26,4.64"/><path class="cls-1" d="M299.32,159.83c-.97,.21-1.7,.37-2.55,.55,.05-.91,.7-1.14,1.27-1.36,1.05-.41,1.63-1.01,1.67-2.2,.02-.76,.44-1.55,.82-2.26,.73-1.38,1.56-2.71,2.44-4.21,2.08,1.15,3.28,2.62,3.27,4.99,1.45,.03,2.68-.33,3.75-1.05,.76-.51,1.37-.59,2.13-.09,.49,.32,1.08,.52,1.58,.83,1.58,.98,2.45,2.38,2.45,4.2,0,4.22-1.87,7.6-5.36,10.09-1.23,.88-2.74,1.42-4.14,2.07-2.77,1.28-7.27-1.45-7.55-4.35-.17-1.8-.31-3.56,.09-5.34,.12-.54,.09-1.11,.14-1.86m4.29,3.83c-.02,.99,.18,1.71,.88,2.17,.73,.48,1.53,.35,2.2-.11,1.65-1.12,2.99-2.48,3.38-4.49,.21-1.06,.03-1.56-.98-1.88-.9-.29-1.86-.41-2.81-.56-.98-.15-1.67,.29-1.9,1.19-.33,1.28-.55,2.58-.78,3.68"/><path class="cls-1" d="M271.43,37.76c1.7,1.32,3.61,1.78,5.68,1.75,.05,0,.12,0,.17,.02,2.58,.96,5.26,1.76,7.7,2.98,1.12,.56,1.87,1.9,2.62,2.98,.56,.8,.12,1.68-.97,1.92-1.49,.32-2.82,.86-4.15,1.55-.72,.37-1.87,.22-2.75,.01-2.05-.47-4.08-1.05-6.07-1.73-1.72-.58-2.63-2.04-3.63-3.35-.35-.46-.57-1.02-.82-1.54-.9-1.94-.59-2.83,1.38-4.03,.23-.14,.45-.29,.86-.55"/><path class="cls-1" d="M82.71,183.81c-.11-.72-.33-1.35,.71-1.53,.37,.8-.27,1.04-.71,1.53"/><path class="cls-1" d="M83.67,173.76c.04,.44,.07,.88,.11,1.32-.13,.01-.26,.03-.4,.04-.05-.43-.09-.86-.14-1.29,.14-.02,.28-.05,.43-.07"/></g></g></svg>